<!-- Generator: Adobe Illustrator 21.0.0, SVG Export Plug-In  -->
<svg version="1.1"
	 xmlns="http://www.w3.org/2000/svg" xmlns:xlink="http://www.w3.org/1999/xlink" xmlns:a="http://ns.adobe.com/AdobeSVGViewerExtensions/3.0/"
	 x="0px" y="0px" width="1039.919px" height="164.221px" viewBox="0 0 1039.919 164.221"
	 style="overflow:scroll;enable-background:new 0 0 1039.919 164.221;" xml:space="preserve">
<style type="text/css">
	.st0{fill:#FFFFFF;}
</style>
<defs>
</defs>
<g>
	<path class="st0" d="M181.228,14.381c21.727,24.445,47.701,38.934,80.28,41.274c0-2.324,0.093-3.938-0.014-5.539
		c-1.241-18.553,7.348-31.593,23.566-39.253c14.266-6.737,28.392-4.753,40.754,5.106c4.206,3.355,7.772,3.545,12.243,1.684
		c5.307-2.209,10.687-4.241,16.783-6.645c-2.538,8.653-7.374,14.708-13.242,20.551c5.992-1.65,11.984-3.3,17.976-4.95
		c0.316,0.372,0.631,0.743,0.947,1.115c-5.143,5.273-10.057,10.799-15.522,15.714c-2.874,2.585-4.098,5.072-4.038,8.928
		c0.765,49.339-36,101.129-92.4,110.245c-27.251,4.404-53.051-0.221-77.113-13.938c-0.792-0.451-1.466-1.107-2.194-2.248
		c20.261,1.39,38.528-3.435,55.748-16.431c-12.138-0.767-21.187-5.552-27.918-14.228c-2.976-3.836-5.317-8.165-8.681-13.417
		c6.069,0,10.409,0,15.883,0c-17.368-8.288-28.074-19.929-28.803-39.574c5.376,1.568,10.156,2.961,14.936,4.355
		C175.495,51.713,171.113,34.941,181.228,14.381z"/>
	<path class="st0" d="M712.813,55.066c-10.408,23.59-7.955,40.32,6.548,52.378c15.891,13.212,35.633,11.529,47.677,2.697
		c17.214-12.624,20.161-28.287,10.17-54.586c1.146-0.169,2.213-0.461,3.281-0.464c12.333-0.033,24.668,0.085,36.999-0.091
		c3.537-0.05,4.527,1.158,4.506,4.609c-0.134,21.332-0.052,42.666-0.073,63.999c-0.017,17.297-13.098,31.114-30.345,31.256
		c-31.164,0.257-62.333,0.234-93.498,0.014c-16.961-0.12-30.185-13.81-30.267-30.855c-0.103-21.333,0.075-42.667-0.113-63.998
		c-0.035-4.017,1.23-5.1,5.116-5.038C685.948,55.195,699.085,55.066,712.813,55.066z"/>
	<path class="st0" d="M496.01,163.533c-15.988-0.001-31.976,0.038-47.964-0.015c-10.541-0.035-18.961-6.936-19.374-17.502
		c-0.648-16.619-0.774-33.312,0.029-49.918c0.607-12.554,8.257-18.566,20.851-18.568c31.477-0.006,62.953-0.009,94.43,0.002
		c11.698,0.004,19.902,7.686,20.12,19.481c0.279,15.15,0.333,30.313,0.026,45.461c-0.282,13.95-7.858,21.043-21.653,21.057
		C526.987,163.546,511.499,163.534,496.01,163.533z M500.27,149.619c3.112-0.784,5.519-1.391,7.926-1.998
		c0.954-0.439,2.05,0.293,3.238,0.812c5.217,2.276,9.905,0.1,10.159-5.513c0.443-9.779,0.496-19.625-0.146-29.386
		c-0.44-6.681-5.22-8.577-11.085-5.278c-0.813,0.457-1.59,0.979-3.283,2.029c0-6.45,0-12.133,0-17.85c-2.676,0-4.601,0-6.809,0
		C500.27,111.248,500.27,129.788,500.27,149.619z M469.99,107.401c0,10.786-0.235,21.087,0.134,31.366
		c0.121,3.375,1.805,6.694,2.774,10.039c3.33-1.018,6.658-2.042,9.993-3.043c0.274-0.082,0.593-0.011,0.932-0.011
		c1.141,5.295,4.687,2.964,7.588,2.793c0-13.903,0-27.457,0-40.966c-2.493,0-4.575,0-6.839,0c-0.102,1.447-0.25,2.592-0.253,3.736
		c-0.021,8.329-0.079,16.66,0.017,24.988c0.039,3.371-1.413,5.779-4.65,5.744c-0.926-0.01-2.01-3.406-2.648-5.371
		c-0.391-1.206-0.073-2.642-0.073-3.975c0-8.435,0-16.871,0-25.302C474.443,107.401,472.624,107.401,469.99,107.401z
		 M550.757,128.503c0-4.633,0.339-8.477-0.074-12.239c-0.751-6.845-4.459-10.054-10.762-9.945
		c-6.442,0.112-10.747,3.785-11.064,10.445c-0.37,7.797-0.293,15.64,0.09,23.439c0.28,5.717,3.896,8.984,9.579,9.754
		c8.432,1.142,13.339-4.975,11.89-15.087c-2.062,0-4.156,0-6.438,0c-0.133,1.361,0.109,2.712-0.429,3.578
		c-1.076,1.731-2.579,3.196-3.906,4.77c-1.245-1.655-2.952-3.149-3.601-5.012c-0.62-1.781-0.027-3.954-0.17-5.94
		c-0.201-2.794,0.931-3.917,3.75-3.8C543.239,128.617,546.868,128.503,550.757,128.503z M451.885,100.134c0,8.255,0,16.202,0,24.15
		c0,8.094,0,16.187,0,24.385c3.086,0,5.486,0,8.368,0c0-13.629,0-26.92,0-40.21c0-8.209,0-8.204,7.881-8.818
		c0.288-0.022,0.555-0.313,0.937-0.541c0-2.181,0-4.411,0-6.658c-8.805,0-17.235,0-25.872,0c0,2.5,0,4.713,0,7.138
		C446.087,99.764,448.691,99.93,451.885,100.134z"/>
	<path class="st0" d="M969.652,111.354c-10.26,35.051-14.345,44.166-23.976,52.508c-0.711-3.003-1.48-5.562-1.908-8.177
		c-1.905-11.617,0.597-22.883,3.032-34.112c2.575-11.873,5.578-23.655,8.013-35.555c0.702-3.431,0.759-7.291-0.05-10.677
		c-2-8.373-0.973-16.284,2.662-23.831c4.204-8.727,9.761-9.515,18.849-7.787c5.063,0.963,8.304,9.14,6.71,16.136
		c-2.18,9.571-4.743,19.055-7.174,28.568c-2.101,8.221,3.66,15.753,12.022,16.284c10.636,0.675,17.578-4.468,21.71-13.585
		c6.014-13.271,8.662-27.292,6.985-41.852c-0.764-6.631-3.881-12.342-9.242-16.595c-14.09-11.181-39.964-11.669-53.815-0.358
		c-14.28,11.661-23.126,32.85-10.773,52.062c2.182,3.394,1.159,10.909-1.853,13.328c-0.833,0.669-2.812,0.642-3.903,0.143
		c-8.368-3.828-13.958-10.28-16.189-19.17c-6.27-24.992,2.892-49.462,30.387-63.123c9.572-4.756,19.796-8.092,30.174-7.893
		c16.685,0.32,32.015,6.138,44.537,17.612c10.648,9.757,14.336,22.556,14.055,36.612c-0.462,23.14-8.484,42.318-29.572,54.173
		c-11.895,6.687-23.952,5.918-35.768-0.379C972.751,114.718,971.384,112.914,969.652,111.354z"/>
	<path class="st0" d="M48.04,58.461c8.061,0,15.648,0,24.053,0c-0.869,8.498-1.54,16.394-2.648,24.228
		c-0.143,1.007-2.526,2.344-3.926,2.413c-5.627,0.276-11.276,0.114-17.631,0.114c0,2.366,0,4.305,0,6.244
		c0,22.332-0.12,44.666,0.1,66.996c0.044,4.495-1.374,5.76-5.704,5.571c-7.319-0.319-14.669-0.271-21.993-0.014
		c-3.832,0.134-4.786-1.296-4.764-4.932c0.139-22.498,0.07-44.998,0.07-67.497c0-1.806,0-3.612,0-5.965c-5.316,0-10.233,0-15.597,0
		c0-9.227,0-17.914,0-27.136c5.053,0,9.978,0,15.598,0c0-6.951-0.563-13.455,0.161-19.812c0.702-6.167,1.645-12.735,4.406-18.145
		c4.96-9.72,14.698-12.509,24.871-13.108c7.641-0.45,15.329-0.064,22.99-0.264c3.124-0.082,4.048,1.167,3.985,4.119
		c-0.143,6.663-0.148,13.334-0.002,19.997c0.068,3.097-1.2,4.093-4.161,3.991c-4.661-0.16-9.332,0.023-13.998-0.053
		c-3.414-0.056-5.61,1.515-5.744,4.863C47.869,46.009,48.04,51.964,48.04,58.461z"/>
	<path class="st0" d="M667.828,50.35c0.473-15.882-3.672-32.658,13.161-44.362c0,11.137,0,21.519,0,32.018c2.075,0,3.634,0,5.751,0
		c0-10.723-0.031-21.187,0.014-31.651c0.02-4.58,0.091-4.58,5.09-4.847c0,11.957,0,23.904,0,36.447
		c1.876,0.095,3.377,0.171,5.484,0.278c0-10.609,0-20.731,0-30.853c0-1.333-0.338-2.794,0.1-3.965
		c0.465-1.245,1.667-2.215,2.547-3.305c0.826,1.134,2.346,2.254,2.37,3.405c0.196,9.496,0.115,18.997,0.117,28.497
		c0,1.814,0,3.627,0,5.836c1.691,0.173,3.07,0.314,4.677,0.479c0.24-1.075,0.557-1.842,0.56-2.611c0.04-10.5,0.103-21,0-31.499
		c-0.028-2.861,0.687-4.239,3.88-4.219c27.328,0.169,54.662-0.037,81.985,0.409c15.108,0.247,27.928,13.775,28.331,28.887
		c0.156,5.829-0.091,11.669,0.08,17.498c0.087,2.978-0.89,4.172-3.97,4.15c-14.166-0.1-28.333,0.036-42.498-0.141
		c-1.785-0.022-3.823-1.049-5.289-2.194c-15.994-12.485-34.626-12.584-50.634-0.277c-1.609,1.237-3.78,2.433-5.706,2.459
		c-14.497,0.198-28.998,0.103-43.497,0.074C669.747,50.865,669.111,50.618,667.828,50.35z M795.305,13.403
		c-2.162,0-4.324-0.016-6.486,0.003c-5.662,0.049-6.755,1.067-6.846,6.618c-0.071,4.323,0.157,8.656-0.062,12.969
		c-0.236,4.652,2.24,6.276,6.35,6.338c4.157,0.063,8.318,0.122,12.472-0.006c5.466-0.168,6.505-1.351,6.561-6.979
		c0.023-2.328-0.04-4.658,0.011-6.985C807.618,10.987,805.974,13.57,795.305,13.403z"/>
	<path class="st0" d="M714.187,77.876c0.02-16.982,13.709-30.086,31.064-30.381c15.989-0.273,29.821,13.783,30.344,30.886
		c0.499,16.297-14.522,30.402-31.333,30.44C728.071,108.856,714.167,94.55,714.187,77.876z M722.853,77.952
		c-0.405,11.713,9.639,21.883,22.092,22.37c11.167,0.437,21.575-9.962,22.029-22.011c0.434-11.518-9.661-21.842-21.698-22.187
		C733.104,55.774,723.29,65.328,722.853,77.952z"/>
	<path class="st0" d="M448.319,7.659c9.691-0.752,9.727-0.762,12.131,7.698c1.18,4.153,2.187,8.355,3.307,12.525
		c0.072,0.266,0.435,0.454,0.898,0.909c1.116-4.616,2.184-9.082,3.276-13.542c2.164-8.837,2.169-8.836,11.944-7.347
		c-1.313,4.444-2.358,8.92-3.95,13.192c-5.06,13.573-7.759,27.481-6.436,41.996c0.359,3.942-1.056,5.24-5.038,5.155
		c-3.668-0.078-5.724-0.733-5.246-4.955c1.792-15.821-2.659-30.597-7.717-45.27C450.356,14.737,449.449,11.376,448.319,7.659z"/>
	<path class="st0" d="M533.93,23.639c0,14.042,0.052,27.826-0.111,41.607c-0.011,0.962-1.582,2.672-2.483,2.709
		c-2.517,0.103-6.002,1.615-6.597-2.871c-0.386,0.051-0.746-0.007-0.962,0.143c-3.326,2.304-7.284,5.381-10.762,2.412
		c-2.207-1.884-2.839-6.407-2.961-9.791c-0.365-10.138,0.003-20.301-0.203-30.448c-0.073-3.6,1.266-4.493,4.643-4.513
		c3.518-0.02,4.63,1.194,4.557,4.648c-0.187,8.816-0.062,17.639-0.062,26.459c0,1.768,0,3.536,0,5.577
		c4.459,0.036,6.052-1.817,6.042-5.408c-0.023-7.988-0.007-15.976-0.006-23.964C525.028,22.268,525.18,22.144,533.93,23.639z"/>
	<path class="st0" d="M503.308,46.216c0,3.987,0.224,7.989-0.05,11.957c-0.467,6.748-5.02,10.405-12.641,10.527
		c-6.655,0.107-11.068-3.217-11.465-9.847c-0.515-8.607-0.472-17.275-0.135-25.895c0.232-5.915,5.355-10.051,11.516-10.226
		c6.857-0.195,11.695,3.219,12.434,9.566c0.533,4.581,0.104,9.274,0.104,13.917C503.15,46.215,503.229,46.216,503.308,46.216z
		 M488.354,45.435c0,3.665-0.235,7.353,0.131,10.981c0.124,1.229,1.765,2.306,2.712,3.452c1.055-1.073,2.987-2.118,3.023-3.224
		c0.237-7.316,0.195-14.651-0.119-21.964c-0.042-0.991-2.11-1.894-3.24-2.838c-0.832,1.033-2.282,2.01-2.38,3.108
		C488.17,38.421,488.366,41.937,488.354,45.435z"/>
	<path class="st0" d="M514.231,128.552c0.007,3.653,0.255,7.332-0.123,10.946c-0.138,1.324-1.76,2.494-2.704,3.734
		c-1.402-1.135-3.96-2.214-4.019-3.414c-0.381-7.786-0.396-15.606-0.054-23.394c0.056-1.27,2.481-2.435,3.811-3.649
		c1.027,1.274,2.802,2.472,2.94,3.836C514.483,120.555,514.224,124.566,514.231,128.552z"/>
	<path class="st0" d="M544.605,117.629c-0.528,3.988-1.73,5.157-4.805,5.17c-3.046,0.013-4.18-1.11-3.929-4.093
		c0.229-2.718,0.261-5.996,3.891-5.49C541.547,113.465,543.001,116.083,544.605,117.629z"/>
</g>
</svg>