<!-- Generator: Adobe Illustrator 21.0.0, SVG Export Plug-In  -->
<svg version="1.1"
	 xmlns="http://www.w3.org/2000/svg" xmlns:xlink="http://www.w3.org/1999/xlink" xmlns:a="http://ns.adobe.com/AdobeSVGViewerExtensions/3.0/"
	 x="0px" y="0px" width="160.62px" height="52.61px" viewBox="0 0 160.62 52.61"
	 style="overflow:scroll;enable-background:new 0 0 160.62 52.61;" xml:space="preserve">
<style type="text/css">
	.st0{fill:#F0572A;}
	.st1{font-family:'OatmealStoutAgedRough-Regular';}
	.st2{font-size:16.9858px;}
</style>
<defs>
</defs>
<g>
	<g>
		<path class="st0" d="M67.704,26.678l0.272,0.238l0.085,0.136l0.119,0.136l0.255,0.221l0.085,0.136l0.034,0.356v0.17l-0.068,0.204
			l0.034,0.119l-0.034,0.221v0.17l0.068,0.153v0.169l-0.068,0.119v0.204l0.017,0.17l-0.017,0.187l0.034,0.119l-0.034,0.221v0.153
			l0.034,0.187l-0.034,0.136l0.068,0.204l-0.051,0.119l0.017,0.187l0.017,0.136l-0.017,0.17l0.034,0.221l-0.068,0.119l0.034,0.221
			l0.034,0.306l-0.17,0.084l-0.339,0.068l-0.102-0.034h-0.306l-0.221-0.017l-0.119,0.051l-0.221-0.017H66.72l-0.068-0.136v-0.408
			v-0.136l-0.034-0.17l0.017-0.204v-0.119l-0.034-0.17l0.068-0.187L66.6,30.703l0.034-0.153l0.034-0.187l-0.034-0.153v-0.187
			l0.017-0.119l0.017-0.187v-0.357v-0.136l-0.017-0.221v-0.17l-0.017-0.119l0.017-0.169l-0.017-0.17v-0.34l-0.051-0.221l0.017-0.17
			l-0.187-0.051l-0.187-0.017l-0.323,0.051l-0.187-0.017l-0.153-0.034h-0.17l-0.153,0.034l-0.136-0.017l-0.306,0.017l-0.153,0.119
			l0.034,0.323l-0.051,0.153l0.068,0.17l-0.051,0.187l-0.017,0.17l0.051,0.221l-0.068,0.17l0.068,0.136v0.153v0.204l-0.051,0.204
			l0.034,0.136l-0.017,0.187l0.034,0.17l-0.034,0.136l-0.034,0.204l0.068,0.204l-0.068,0.119l0.051,0.357l-0.017,0.17l0.034,0.136
			v0.187l-0.051,0.187l-0.034,0.323l-0.374,0.051l-0.119,0.034l-0.17,0.017l-0.153-0.034h-0.323l-0.17,0.017l-0.374-0.017
			l-0.068-0.153l-0.034-0.34v-0.153l0.017-0.17v-0.374v-0.356L62.78,30.72l0.034-0.204l-0.017-0.17v-0.169l0.051-0.17l-0.051-0.17
			l0.034-0.153v-0.17l-0.051-0.187l0.068-0.187v-0.187l-0.017-0.153l0.017-0.322l-0.068-0.187l0.051-0.136l-0.034-0.204l0.051-0.169
			l-0.068-0.153l0.051-0.169l-0.034-0.187l0.017-0.153v-0.221l0.034-0.119l-0.051-0.187l0.051-0.34l-0.068-0.17l0.068-0.204
			l-0.068-0.153l0.034-0.136l-0.017-0.204l0.051-0.136l-0.051-0.17l-0.017-0.187v-0.374l0.034-0.153l0.017-0.136l-0.051-0.187
			l0.017-0.153l0.051-0.17v-0.34l-0.051-0.204l-0.017-0.187l0.034-0.119l0.034-0.204l-0.068-0.136l0.034-0.221l0.017-0.153
			l-0.017-0.136l0.034-0.187v-0.17l-0.068-0.187v-0.153l0.051-0.17v-0.187l-0.034-0.306l0.102-0.17l0.068-0.017l0.391-0.017
			l0.136,0.051l0.187-0.017h0.153l0.17-0.017h0.204l0.085-0.017l0.221,0.034l0.187,0.017h0.102l0.169-0.051h0.221l0.136,0.051
			l0.221-0.051l0.136,0.034l0.17-0.017l0.136-0.017l0.187,0.017l0.204,0.034l0.119-0.017h0.17l0.169,0.017l0.187-0.051l0.509,0.102
			l0.289,0.272l0.187,0.119l0.068,0.136l0.119,0.153l0.221,0.221l0.102,0.119l0.034,0.34l-0.068,0.17l0.017,0.204l0.017,0.136v0.187
			l0.034,0.136v0.17l-0.051,0.187l0.017,0.153l-0.034,0.221l0.034,0.17v0.153l0.017,0.204v0.306l0.017,0.17l-0.017,0.187
			L68.52,24.81l0.034,0.187l-0.051,0.153l0.034,0.187l-0.068,0.323l-0.017,0.153l-0.204,0.187l-0.153,0.153l-0.068,0.102
			l-0.102,0.085l-0.221,0.238V26.678z M63.306,27.375l-0.085-0.051l0.034,0.034l0.051,0.034V27.375z M63.255,22.585l0.034,0.034
			l0.051-0.051L63.255,22.585z M63.425,27.986l0.034,0.017l-0.017-0.085l-0.085,0.017L63.425,27.986z M63.425,29.514l-0.068-0.017
			l0.051,0.034L63.425,29.514z M63.425,30.431l-0.051-0.051l0.017,0.017L63.425,30.431z M63.408,29.328l0.068-0.068l-0.017-0.017
			l-0.068,0.051L63.408,29.328z M63.51,24.572l-0.085-0.017l0.068,0.034L63.51,24.572z M63.425,31.111l0.068,0.017l-0.051,0.034
			L63.425,31.111z M63.442,23.74l0.051-0.051h-0.017L63.442,23.74z M63.612,26.661l-0.051-0.136l-0.119-0.017l0.051,0.068
			L63.612,26.661z M63.544,29.99l-0.017,0.034l-0.068,0.017h0.051L63.544,29.99z M63.544,24.046L63.51,24.08l0.102,0.017
			l-0.068-0.034V24.046z M63.51,27.205l0.034-0.017l-0.017-0.017L63.51,27.205z M63.544,24.929l0.051,0.051l0.017-0.085h-0.068
			V24.929z M63.561,22.738l0.034,0.034l0.068-0.153h-0.102V22.738z M63.612,25.744l-0.051-0.051v0.187l0.068,0.068L63.612,25.744z
			 M63.612,30.72l-0.051-0.017l0.034-0.017L63.612,30.72z M63.764,22.093l-0.017-0.204l-0.085,0.034l-0.085,0.17H63.764z
			 M63.646,28.394l-0.068-0.051l0.034,0.017L63.646,28.394z M63.714,22.484l-0.017-0.051l-0.085,0.085l0.085,0.051L63.714,22.484z
			 M63.612,27.68l0.034,0.034l0.017,0.051l0.034-0.085H63.612z M63.662,25.15l-0.017,0.034l-0.017,0.051l0.068-0.051L63.662,25.15z
			 M63.646,26.916l0.034,0.051l0.034-0.017L63.646,26.916z M63.799,29.769l-0.153,0.068l0.102,0.085l0.119,0.017L63.799,29.769z
			 M63.747,23.604l-0.051,0.017v0.034L63.747,23.604z M63.764,27.85h-0.017l-0.034,0.034L63.764,27.85z M63.714,30.143l0.051,0.034
			l0.034-0.017L63.714,30.143z M63.764,23.333l0.153,0.017l-0.034-0.136L63.73,23.18L63.764,23.333z M63.764,30.415v-0.034
			l-0.017,0.051l0.085-0.017H63.764z M63.764,30.703v0.034l0.051,0.017L63.764,30.703z M63.832,21.685v-0.034l0.034-0.034h-0.034
			V21.685z M63.866,26.712v0.051l-0.034-0.034v0.017L63.866,26.712z M63.883,29.277l-0.051,0.017l0.051-0.034V29.277z
			 M63.883,23.571v0.051l-0.017,0.034l0.034-0.051L63.883,23.571z M63.934,27.29L63.9,27.256l-0.017,0.017L63.934,27.29z
			 M63.968,27.901l-0.085-0.034L63.968,27.901z M63.883,28.275l0.051,0.051l0.017-0.051H63.883z M63.934,31.535l-0.051,0.017
			l0.051,0.017V31.535z M64.087,26.559l-0.034,0.017h-0.051l0.034,0.017L64.087,26.559z M64.036,25.235h0.017l0.017-0.017
			l-0.034-0.051V25.235z M64.121,21.906l0.051-0.034h-0.051H64.07l0.068,0.085L64.121,21.906z M64.172,30.55l-0.102-0.051
			l0.017,0.085l0.136,0.051L64.172,30.55z M64.104,27.018l0.051-0.102l-0.068,0.017l0.017,0.034V27.018z M64.155,27.273l0.017-0.034
			l0.017-0.034l-0.102-0.017L64.155,27.273z M64.138,21.244l-0.034,0.034l0.051-0.051l-0.017-0.068V21.244z M64.121,22.042
			l0.034,0.085l-0.017-0.051h0.034L64.121,22.042z M64.155,26.288v0.017l-0.034-0.034L64.155,26.288z M64.529,27.103l-0.153,0.017
			l-0.034,0.085l0.136-0.034L64.529,27.103z M64.359,21.227l0.102-0.051l-0.068-0.017L64.359,21.227z M64.427,27.29v0.102
			l0.034,0.017l0.017-0.085L64.427,27.29z M64.461,21.668v0.034l0.017,0.051v-0.068L64.461,21.668z M66.669,25.184V24.98
			L66.6,24.793V24.64l0.017-0.153L66.6,24.25v-0.136v-0.153l0.051-0.221l0.017-0.187v-0.153l-0.017-0.17v-0.153l-0.017-0.204
			l0.034-0.153l-0.102-0.374H66.21l-0.102,0.017l-0.17-0.034l-0.17,0.017h-0.17l-0.204,0.017l-0.153-0.051h-0.221l-0.357,0.051
			l-0.017,0.408l0.017,0.153v0.221l0.017,0.17l-0.068,0.136v0.17l0.034,0.187l-0.017,0.374l0.034,0.17l0.017,0.153l-0.068,0.136
			v0.187l0.017,0.136l0.017,0.17l0.034,0.153l0.017,0.323l0.323,0.102h0.356l0.187-0.051h0.323l0.169,0.017l0.204,0.034l0.339-0.068
			l0.068-0.306V25.184z M64.902,26.712l-0.068-0.017l-0.051-0.051l0.017,0.051L64.902,26.712z M64.834,27.171l0.034-0.034
			l0.034,0.085v-0.051H64.834z M64.868,21.329l0.034,0.017v0.034L64.868,21.329z M65.072,26.288l-0.017-0.051l-0.102,0.017
			l0.034,0.051L65.072,26.288z M65.055,26.491v-0.034l-0.051,0.068h0.017L65.055,26.491z M65.259,26.95l0.068,0.034l-0.051,0.034
			l0.051-0.068H65.259z M65.395,21.668l-0.017-0.102l0.017,0.017v0.034V21.668z M65.616,26.424l-0.136,0.017l0.068,0.102
			L65.616,26.424z M66.108,21.685l0.034,0.034L66.108,21.685l-0.051,0.034L66.108,21.685z M66.278,21.482l0.017-0.102l-0.102,0.085
			v0.068l0.051,0.017L66.278,21.482z M66.312,26.78l-0.034-0.034l-0.051,0.085h0.034L66.312,26.78z M66.55,21.091l0.085-0.034
			l-0.051-0.017h-0.017L66.55,21.091z M66.567,26.814l0.051-0.017L66.567,26.814z M66.669,21.872v-0.034l0.034,0.017l-0.017-0.051
			L66.669,21.872z M66.855,21.719l-0.034-0.017l0.034,0.119l0.102-0.017l-0.068-0.102L66.855,21.719z M67.042,26.882l0.034-0.017
			L67.042,26.882z M67.144,25.404l-0.017,0.017h-0.051v0.051L67.144,25.404z M67.161,21.515l0.068,0.051L67.161,21.515z
			 M67.246,24.403l-0.034,0.017l0.068,0.068l-0.017-0.051L67.246,24.403z M67.297,23.163l-0.034,0.068h0.085l0.051-0.051
			L67.297,23.163z M67.28,27.188l0.068-0.068l0.068-0.051l-0.102,0.034L67.28,27.188z M67.399,29.531l-0.017-0.034l-0.085,0.017
			l0.017,0.068l0.034-0.051H67.399z M67.314,25.404v0.017l0.034,0.017L67.314,25.404z M67.449,31.111l-0.119-0.051l0.017,0.136
			L67.449,31.111z M67.534,28.767l0.051-0.017l-0.051,0.034v0.068l-0.169,0.136l0.136,0.085l0.085-0.102l0.102-0.136L67.534,28.767z
			 M67.467,22.772l-0.085-0.034l0.017-0.017L67.467,22.772z M67.382,30.483l0.017,0.034l0.017-0.051L67.382,30.483z M67.433,22.161
			h0.034l-0.017-0.068v0.051L67.433,22.161z M67.501,31.162l-0.051,0.034l0.051,0.034V31.162z M67.518,24.623v-0.017l-0.051,0.017
			H67.518z M67.654,23.333l-0.17,0.051l0.034,0.153l0.169-0.034L67.654,23.333z M67.569,24.352l-0.034-0.034v0.051L67.569,24.352z
			 M67.654,23.214l0.068-0.034l-0.102-0.017h-0.051L67.654,23.214z M67.603,27.443l0.034,0.068l-0.051,0.017l0.068-0.034
			L67.603,27.443z M67.619,29.022l0.017,0.017l-0.034,0.017l0.068,0.034L67.619,29.022z M67.637,30.771l0.017,0.017l-0.034-0.034
			L67.637,30.771z M67.671,25.422l-0.034,0.085h0.051L67.671,25.422z M67.824,28.309l-0.051-0.034l-0.034,0.068L67.824,28.309z
			 M67.806,25.048l0.119-0.017l-0.017-0.119l-0.136,0.051L67.806,25.048z M67.993,24.182l-0.017-0.068l-0.034-0.051l-0.017,0.051
			L67.993,24.182z"/>
		<path class="st0" d="M76.265,22.195l0.017,0.119l-0.017,0.17l-0.034,0.221v0.119v0.17l-0.017,0.221l0.034,0.17l-0.034,0.17
			l0.017,0.17l-0.017,0.153l0.034,0.187l-0.034,0.136l0.017,0.169l-0.017,0.17l0.051,0.204v0.169l-0.017,0.187l0.034,0.17
			l-0.051,0.119l0.017,0.187l0.034,0.153l-0.068,0.204l0.017,0.17l0.051,0.136l-0.017,0.34l-0.051,0.204v0.17l0.068,0.187
			l-0.051,0.17v0.153l0.051,0.187l-0.034,0.17l-0.017,0.136l-0.017,0.204v0.169l0.034,0.153l-0.034,0.187l0.017,0.17l0.017,0.17
			l0.034,0.153l-0.051,0.204l-0.017,0.153l0.051,0.17v0.136v0.17v0.204l-0.034,0.153v0.187l-0.017,0.187l0.051,0.169v0.34
			l-0.136,0.17l-0.237,0.306l-0.136,0.068l-0.136,0.153l-0.136,0.102l-0.272,0.255l-0.136,0.084l-0.17,0.017l-0.289,0.034
			l-0.238-0.034l-0.136,0.034l-0.187-0.034l-0.119,0.034l-0.323-0.034l-0.221,0.051l-0.136-0.051l-0.204,0.017l-0.136,0.034h-0.136
			l-0.153-0.034l-0.238,0.017l-0.085,0.017l-0.204-0.034l-0.306-0.034l-0.17-0.051l-0.271-0.221l-0.17-0.136l-0.153-0.17
			l-0.136-0.068l-0.238-0.255l-0.085-0.17l-0.051-0.408l0.034-0.119l0.034-0.204l-0.034-0.17l0.017-0.136l-0.017-0.204v-0.204
			l0.034-0.136l-0.051-0.187l0.017-0.136l-0.034-0.204l0.068-0.153l-0.068-0.204v-0.136l0.068-0.153l-0.034-0.221l-0.017-0.169
			l0.051-0.17l-0.017-0.119l-0.017-0.169l-0.017-0.187v-0.17l0.034-0.187l-0.034-0.17l-0.017-0.204l0.017-0.153v-0.187l-0.017-0.136
			l0.034-0.204l-0.017-0.153l0.051-0.187l-0.017-0.17l0.017-0.119v-0.221l-0.068-0.17l0.034-0.187l-0.017-0.136l-0.017-0.153
			l0.068-0.169l-0.051-0.187v-0.187l0.051-0.187l-0.034-0.136l0.017-0.153l0.017-0.221v-0.153l-0.017-0.187l-0.017-0.187
			l-0.034-0.153l0.068-0.17l-0.017-0.136l-0.051-0.221l0.068-0.119l-0.051-0.322l0.102-0.187l0.051-0.102l0.221-0.289l0.187-0.102
			l0.068-0.153l0.17-0.136l0.204-0.17l0.153-0.068h0.271l0.204-0.017h0.17l0.153,0.017l0.187-0.034l0.153,0.034l0.204-0.034
			l0.153,0.034l0.204-0.017l0.136-0.034l0.187,0.034h0.339h0.204l0.169-0.034h0.187l0.187,0.034l0.271-0.017l0.136,0.084
			l0.289,0.238l0.068,0.119l0.153,0.136l0.119,0.085l0.272,0.238l0.119,0.119l0.017,0.17v0.306L76.265,22.195z M71.119,29.701V29.65
			l-0.017,0.017L71.119,29.701z M71.17,23.74h-0.051l0.051,0.068V23.74z M71.272,23.333l-0.017-0.119l-0.051,0.017l-0.017,0.119
			L71.272,23.333z M71.255,24.046l-0.034,0.068L71.255,24.046z M71.391,26.729l-0.051-0.119l-0.102-0.017l0.051,0.085v0.136
			L71.391,26.729z M71.272,22.348l0.017,0.034v-0.051l0.017,0.017H71.272z M71.34,25.812l-0.051-0.034l0.034-0.017L71.34,25.812z
			 M71.612,29.922h-0.17l-0.136,0.034l0.136,0.051l0.034,0.034l-0.102,0.153v0.136l0.102-0.102l0.034-0.187l0.102-0.068V29.922z
			 M71.34,26.254l0.136,0.068l-0.017-0.102l-0.136-0.102L71.34,26.254z M71.408,27.29v-0.051H71.34L71.408,27.29z M71.475,28.088
			l-0.084-0.068l-0.051,0.017v0.102L71.475,28.088z M71.425,22.127l0.102-0.119l-0.136,0.051l-0.017,0.034L71.425,22.127z
			 M71.374,28.886l0.068-0.017L71.374,28.886z M71.425,21.889l0.051-0.034l-0.034-0.051l-0.051,0.034L71.425,21.889z M71.442,27.595
			l-0.051,0.068l0.051-0.034l0.051,0.034L71.442,27.595z M71.408,22.772l0.034-0.017v-0.102l-0.034,0.051V22.772z M71.408,27.018
			l0.017,0.068l0.034-0.051v-0.017H71.408z M71.459,24.267l0.034,0.051l-0.017-0.068L71.459,24.267z M71.56,28.512l-0.051,0.034
			l-0.034,0.051l0.102-0.017L71.56,28.512z M71.577,30.856l0.034-0.119h-0.068l-0.051,0.085L71.577,30.856z M71.544,23.265
			l-0.017-0.017l-0.017,0.034L71.544,23.265z M71.544,24.097l0.017,0.017l-0.051-0.051L71.544,24.097z M71.544,21.482l0.068,0.017
			l-0.034-0.068h-0.034V21.482z M71.662,24.98l-0.119,0.051l0.034,0.119l0.119-0.085L71.662,24.98z M71.645,31.247l-0.068,0.051
			l-0.017,0.034l0.017-0.051L71.645,31.247z M71.595,27.238l0.017-0.084v0.034l-0.034,0.017L71.595,27.238z M71.612,25.693h0.017
			l-0.034,0.034L71.612,25.693z M71.662,28.767l-0.034-0.068l-0.017,0.068l0.068,0.034L71.662,28.767z M71.628,23.876l0.051,0.017
			L71.628,23.876z M71.645,21.838h0.102l0.034-0.017l-0.084-0.085L71.645,21.838z M71.697,23.723v-0.102l-0.051,0.051L71.697,23.723
			z M71.645,26.203l0.017-0.034l0.034-0.051l-0.017,0.068L71.645,26.203z M71.917,30.499l-0.136-0.017l-0.068,0.085l0.034,0.068
			l0.187-0.068L71.917,30.499z M71.747,22.382l0.068,0.034l0.051-0.034l-0.085-0.068L71.747,22.382z M71.781,21.515h0.136
			l-0.051-0.034l-0.068-0.017L71.781,21.515z M71.832,29.124l-0.034-0.017l-0.017-0.034l0.051,0.017V29.124z M71.849,30.805
			l-0.068-0.017l0.034,0.085l0.034-0.017V30.805z M71.832,27.12v-0.068l-0.034,0.085L71.832,27.12z M71.815,31.213l0.017,0.119
			h-0.034L71.815,31.213z M71.9,25.472v0.017l-0.034,0.034l0.051,0.034L71.9,25.472z M72.07,30.992l-0.051,0.034v0.085h0.085
			L72.07,30.992z M72.206,21.6l-0.068,0.051l0.034-0.017L72.206,21.6z M72.189,30.703l-0.051,0.017L72.189,30.703z M72.427,21.77
			h-0.034l-0.051,0.017l0.017-0.017H72.427z M72.409,31.23l-0.051-0.034h-0.017l0.017,0.034H72.409z M74.193,22.364h-0.391
			l-0.119-0.017l-0.221-0.017l-0.119,0.034H73.14l-0.119-0.051l-0.237,0.034h-0.255l-0.136,0.136l-0.017,0.271l0.051,0.187
			l-0.017,0.204l-0.017,0.119l0.017,0.17l0.017,0.204l-0.051,0.17l0.017,0.187l0.034,0.153l0.017,0.17l-0.017,0.204l0.017,0.153
			l-0.034,0.136v0.17l-0.017,0.221l0.034,0.17l0.017,0.136l-0.017,0.187v0.153l-0.034,0.17v0.221l0.017,0.272l-0.017,0.204
			l0.034,0.306l-0.034,0.153l0.034,0.204l0.017,0.119v0.17l-0.068,0.187l0.017,0.153v0.187l-0.017,0.153v0.221l0.068,0.136
			l-0.051,0.221l-0.017,0.119l0.017,0.221v0.136l0.017,0.153l-0.017,0.221v0.17l-0.017,0.136l0.017,0.356l0.153,0.102l0.339-0.034
			h0.119l0.204,0.051l0.204-0.017l0.136-0.017h0.594l0.17-0.051l0.034-0.153l-0.034-0.374l0.017-0.136v-0.204l-0.034-0.17
			l0.034-0.17l0.034-0.153l-0.068-0.136v-0.356v-0.34l0.017-0.204l-0.017-0.153l0.068-0.17l-0.068-0.153l0.034-0.187l-0.017-0.17
			l0.017-0.136V26.95l0.034-0.204l-0.068-0.17l0.034-0.187l0.017-0.119l-0.034-0.221v-0.34l0.017-0.136l-0.017-0.153l0.034-0.187
			l0.017-0.221l-0.068-0.119l0.068-0.17v-0.357l-0.068-0.153l0.051-0.221l-0.017-0.153v-0.136l0.034-0.204l-0.034-0.204
			l-0.017-0.119l0.051-0.221l-0.051-0.119v-0.374L74.193,22.364z M72.427,31.739h-0.051l0.017-0.017L72.427,31.739z M72.444,31.45
			l-0.017,0.051l0.034,0.068l0.034-0.051L72.444,31.45z M72.461,31.45l0.034-0.034L72.461,31.45z M72.614,21.787h0.017l-0.068-0.017
			v-0.034L72.614,21.787z M72.664,31.586l-0.068,0.068l-0.017,0.017l0.085-0.017V31.586z M72.614,31.077l-0.017-0.051l0.034,0.068
			L72.614,31.077z M72.8,31.247l0.017,0.051l-0.034-0.017L72.8,31.247z M73.055,21.244l-0.017-0.034l-0.051-0.017l-0.017,0.068
			L73.055,21.244z M73.123,31.349l-0.051,0.017l0.051,0.034h-0.017L73.123,31.349z M73.344,31.62l0.017,0.068l0.034-0.017
			L73.344,31.62z M73.565,21.21l0.084-0.238l-0.136-0.017l-0.051,0.238L73.565,21.21z M73.683,21.855l0.068,0.017L73.7,21.855
			l-0.051-0.051L73.683,21.855z M73.836,21.21l0.017,0.034l0.034-0.119l-0.068-0.051L73.836,21.21z M74.057,21.397l0.034-0.153
			l-0.085,0.068v0.17L74.057,21.397z M74.295,31.57l0.017-0.017l-0.051,0.068v0.017L74.295,31.57z M74.482,31.365l-0.102-0.034
			l-0.034,0.085L74.482,31.365z M74.414,21.159l-0.051,0.034h0.068L74.414,21.159z M74.55,21.21l0.051-0.017l-0.034,0.034h0.068
			L74.55,21.21z M74.635,21.821l0.153-0.051l-0.068-0.068l-0.017,0.034L74.635,21.821z M74.736,30.873l-0.017-0.017l0.034-0.051
			l-0.068,0.017L74.736,30.873z M74.821,31.247l-0.017-0.051l-0.034-0.068l-0.085,0.051L74.821,31.247z M74.855,31.518l-0.085-0.034
			l0.051,0.068l0.068-0.068L74.855,31.518z M74.906,26.593l0.068-0.017v-0.034L74.906,26.593z M74.991,29.718v-0.051l-0.051,0.017
			L74.991,29.718z M75.042,24.3l-0.034-0.034h-0.034L75.042,24.3z M75.059,22.008l0.017-0.017h0.034l-0.051-0.017l-0.068,0.051
			l0.017,0.051L75.059,22.008z M74.991,22.314h0.119l-0.051-0.068l-0.068,0.017V22.314z M75.093,30.075v-0.017l-0.034-0.068
			l-0.068,0.085H75.093z M75.042,25.302v0.034l0.034-0.068l-0.068-0.017L75.042,25.302z M75.059,31.094h-0.034l0.017,0.085
			l0.085-0.034L75.059,31.094z M75.127,23.129l-0.085,0.068h0.153l-0.034-0.017L75.127,23.129z M75.212,25.592l-0.136,0.034
			l0.051,0.034l0.068,0.034l-0.017-0.017L75.212,25.592z M75.161,27.307l0.017-0.068l-0.051,0.051h-0.051L75.161,27.307z
			 M75.195,26.321l-0.051-0.051l0.068,0.068L75.195,26.321z M75.229,28.563l-0.034-0.034l-0.051,0.051L75.229,28.563z
			 M75.144,30.126h0.051l-0.051-0.017V30.126z M75.28,22.789l-0.034-0.068l-0.017,0.017l-0.051,0.017L75.28,22.789z M75.195,24.029
			h0.017l-0.034,0.051L75.195,24.029z M75.212,23.927l-0.017,0.051l0.034-0.017L75.212,23.927z M75.331,28.954l-0.034-0.136
			l-0.102-0.017l0.034,0.102L75.331,28.954z M75.263,24.98h0.085l-0.034-0.034h-0.102L75.263,24.98z M75.246,30.245l0.017,0.051
			l-0.017-0.017l-0.034-0.017L75.246,30.245z M75.297,24.725l-0.017,0.017l0.136,0.017l-0.017-0.051L75.297,24.725z M75.382,24.42
			l0.017-0.034l-0.051-0.034l-0.051,0.017L75.382,24.42z M75.416,29.566l0.051-0.068l-0.153,0.034l0.051,0.085L75.416,29.566z
			 M75.382,28.122l0.051-0.017l-0.068-0.017l-0.034-0.017L75.382,28.122z M75.382,23.01l-0.034,0.085l0.034-0.051V23.01z
			 M75.365,27.68h0.034v-0.051l-0.051,0.017L75.365,27.68z M75.432,30.55l-0.034-0.051l-0.051,0.068h0.102L75.432,30.55z
			 M75.416,25.32l-0.051-0.051l0.034,0.051H75.416z M75.416,31.009v-0.034l-0.034,0.034l0.034-0.034V31.009z M75.467,27.46
			l-0.068-0.068v0.034l0.034,0.034H75.467z M75.416,27.884l0.017-0.051l-0.034,0.017L75.416,27.884z M75.432,22.382l0.017-0.034
			l-0.017-0.034V22.382z M75.585,25.439l-0.153,0.051v0.034h0.085L75.585,25.439z M75.484,26.118l-0.051-0.017l0.034-0.051
			L75.484,26.118z M75.432,29.752l0.051-0.034l-0.017-0.017L75.432,29.752z M75.449,28.937l0.051,0.017l0.017-0.034L75.449,28.937z
			 M75.467,28.682h0.051l-0.017,0.051l-0.017,0.017L75.467,28.682z M75.619,24.759l-0.085,0.034l0.017,0.017l0.051,0.017
			L75.619,24.759z M75.704,23.842l-0.034-0.017l-0.017,0.068L75.704,23.842z M75.687,24.25H75.67l0.051,0.017l-0.017,0.017
			L75.687,24.25z M75.857,22.772h-0.034l0.051-0.017l-0.034-0.017L75.857,22.772z"/>
		<path class="st0" d="M83.06,20.87v0.221l-0.068,0.136l0.034,0.221l-0.051,0.17l-0.085,0.119l-0.034,0.221l-0.034,0.169v0.119
			l-0.034,0.238l-0.033,0.17l-0.052,0.339v0.153l-0.102,0.119l-0.034,0.221v0.136v0.187l-0.067,0.169v0.153L82.431,24.3l-0.034,0.17
			l0.018,0.136l-0.136,0.34l0.033,0.187l-0.067,0.119l-0.018,0.187l-0.085,0.153l-0.033,0.187v0.187l-0.068,0.119l-0.034,0.204
			l0.018,0.136l-0.018,0.204l-0.051,0.119l-0.085,0.17l0.018,0.169l-0.052,0.323l-0.033,0.153l-0.068,0.221l-0.051,0.102l0.017,0.17
			l-0.067,0.187v0.153l-0.068,0.187l0.018,0.153l-0.034,0.153l-0.085,0.17l-0.068,0.34l-0.017,0.187l0.017,0.323l-0.033,0.204
			l0.017,0.169l0.051,0.119l-0.017,0.187l0.017,0.17l-0.067,0.204l0.017,0.153v0.136l0.051,0.187v0.153l-0.034,0.221v0.169
			l-0.033,0.306l-0.052,0.102l-0.407,0.051h-0.306l-0.153-0.051l-0.187,0.017l-0.204-0.017l-0.152,0.017l-0.271,0.017l-0.153-0.102
			l0.034-0.356l-0.034-0.17l0.017-0.136l-0.051-0.187l0.051-0.221l0.017-0.119l-0.051-0.169l0.051-0.221l0.034-0.356l-0.051-0.119
			l0.017-0.187l0.017-0.17v-0.204v-0.17l-0.034-0.136l-0.034-0.204l-0.017-0.169l-0.051-0.187l-0.017-0.187l-0.034-0.169
			l-0.068-0.136l-0.017-0.17l-0.068-0.187V27.85l-0.068-0.391v-0.17l-0.085-0.153L79,26.967l-0.017-0.17l-0.034-0.136l-0.068-0.153
			l-0.034-0.17v-0.187l-0.034-0.169l-0.017-0.187l-0.017-0.153l-0.034-0.187l-0.017-0.169l-0.085-0.153l-0.034-0.136v-0.204
			l-0.068-0.153l-0.034-0.17l-0.051-0.153l-0.017-0.153l0.017-0.187l-0.068-0.169l-0.017-0.153l-0.034-0.187l-0.017-0.153
			l-0.051-0.204l-0.017-0.153l-0.051-0.17l-0.034-0.187l-0.034-0.306l-0.068-0.187l0.017-0.136l-0.034-0.187L77.965,21.6
			l-0.051-0.136l0.034-0.17l-0.102-0.17v-0.187l-0.051-0.306l0.085-0.119l0.323-0.034l0.204,0.034l0.187-0.017h0.17l0.153,0.017
			h0.238l0.339,0.034l0.085,0.289l0.034,0.187l0.05,0.153l0.034,0.136l0.018,0.204v0.136l0.085,0.153l0.051,0.187l0.034,0.17
			l0.033,0.17l-0.017,0.306l0.051,0.153l0.085,0.204v0.17l0.017,0.17l0.085,0.187l0.034,0.153v0.17l0.068,0.204l-0.034,0.119
			l0.102,0.204l0.034,0.153l-0.017,0.169l0.017,0.255l0.136-0.034l0.051-0.237v-0.187l0.068-0.136l0.017-0.187l0.018-0.153
			l0.067-0.153l0.068-0.204l-0.018-0.102l0.085-0.356l0.034-0.17l0.034-0.204l0.068-0.119v-0.221l0.051-0.136l0.017-0.204
			l0.068-0.136l0.017-0.153l0.017-0.187l0.052-0.136l-0.018-0.204l0.034-0.136l0.034-0.221l0.067-0.17l0.103-0.289l0.356-0.051
			l0.119,0.051l0.187-0.034h0.322l0.221-0.017l0.103,0.051l0.373,0.017L83.06,20.87z M79.578,25.507h-0.085l0.034,0.034
			L79.578,25.507z M79.714,25.693v-0.034l0.017,0.102l0.051-0.034L79.714,25.693z M79.782,25.965l0.034-0.017l-0.017,0.085
			l0.017,0.034L79.782,25.965z M79.832,27.561l-0.017-0.068v0.051l-0.017,0.051L79.832,27.561z M80.19,26.696l-0.085,0.034
			l0.051,0.051L80.19,26.696z M80.275,27.613h-0.137l0.052,0.153l0.118-0.051L80.275,27.613z M80.19,25.659l0.017-0.051
			l-0.051,0.051H80.19z M80.308,26.186l-0.085-0.068l-0.033,0.068H80.308z M80.275,25.846v-0.017h-0.018l-0.034-0.051L80.275,25.846
			z M80.275,28.479v0.017l-0.018,0.017l-0.034-0.017L80.275,28.479z M80.275,30.109h-0.052l0.068-0.034l-0.017-0.017V30.109z
			 M80.461,28.19l0.119-0.017l-0.17-0.051l-0.018,0.051l-0.051-0.068l0.034,0.034L80.461,28.19z M80.478,26.763l-0.017-0.051
			l-0.085,0.017l0.017,0.068L80.478,26.763z M80.529,29.701H80.41l-0.034,0.102h0.136L80.529,29.701z M80.665,29.107l-0.238,0.051
			l-0.017,0.153l0.255,0.034V29.107z M80.563,28.852l-0.067,0.068l0.085,0.017l-0.034-0.051L80.563,28.852z M80.546,30.381
			l-0.034,0.051l0.017-0.051l-0.033,0.017L80.546,30.381z M80.529,27.918l0.119,0.051v-0.102l-0.085-0.034L80.529,27.918z
			 M80.614,30.686l-0.017-0.051l-0.034,0.034L80.614,30.686z M80.665,29.905l-0.034-0.034l-0.018,0.034l0.068,0.017L80.665,29.905z
			 M80.767,28.292h-0.102l0.017,0.085l0.034,0.051L80.767,28.292z M80.818,25.931l-0.085-0.017l0.034,0.084L80.818,25.931z
			 M80.783,25.727l0.051,0.068h0.034l0.018-0.017L80.783,25.727z M80.988,26.491l-0.051,0.051h0.017L80.988,26.491z M81.378,25.659
			l-0.051-0.102l-0.153,0.051l0.119,0.017l0.068,0.034v0.153l0.051-0.017L81.378,25.659z M81.446,24.675l0.034,0.034h0.018
			L81.446,24.675z M81.582,22.721l0.085,0.051l-0.052-0.017l0.052-0.017L81.582,22.721z"/>
		<path class="st0" d="M90.379,22.161v0.17l-0.067,0.153v0.17l0.067,0.221l-0.051,0.136l0.017,0.187l-0.033,0.153l0.051,0.169v0.221
			l-0.018,0.153l-0.017,0.153l0.051,0.204l-0.067,0.153l0.033,0.17l0.018,0.136l-0.018,0.187v0.153l0.034,0.187l-0.067,0.187
			l0.033,0.153l0.034,0.204v0.136v0.204v0.187l-0.034,0.169v0.119l-0.017,0.187v0.323v0.17l-0.017,0.221l0.033,0.119l-0.017,0.187
			v0.153l0.017,0.187l0.034,0.153l-0.051,0.187l0.051,0.136l-0.051,0.221l0.034,0.153l0.017,0.187l-0.034,0.119v0.17l0.034,0.17
			l-0.067,0.153l0.067,0.17v0.187l-0.067,0.204l0.033,0.119l-0.033,0.221l0.017,0.17l0.017,0.153l-0.017,0.17l0.034,0.17
			l0.017,0.153l-0.051,0.187l0.017,0.17l0.018,0.306l-0.085,0.221l-0.17,0.034h-0.356l-0.103,0.017l-0.203-0.051l-0.188,0.017
			l-0.102,0.017l-0.221-0.017H88.63l-0.152-0.085l-0.018-0.119l-0.051-0.357l0.051-0.204l0.018-0.119l-0.034-0.221l-0.018-0.119
			v-0.187l0.052-0.17l-0.068-0.153l0.068-0.187l-0.052-0.187l0.018-0.17v-0.153l0.017-0.187v-0.187l-0.034-0.153l0.018-0.187
			l0.017-0.169l-0.051-0.153l0.068-0.17V28.41l-0.052-0.136l-0.017-0.17l0.034-0.136l0.034-0.153l-0.052-0.408h-0.407H87.9h-0.221
			l-0.187-0.034l-0.17,0.034l-0.119-0.017L87,27.358l-0.307,0.017l-0.118,0.153l-0.018,0.289l-0.017,0.187l0.017,0.153l-0.033,0.221
			l0.017,0.153l-0.017,0.187l0.017,0.17l0.017,0.153l-0.033,0.136l-0.018,0.169l0.051,0.17l-0.033,0.204l0.033,0.306l-0.033,0.187
			l0.033,0.187l-0.017,0.339l-0.017,0.136l0.033,0.136l-0.051,0.17l0.051,0.153l0.018,0.17v0.169v0.153l-0.034,0.17l-0.051,0.357
			l-0.374,0.051l-0.136,0.034l-0.204-0.017l-0.118,0.017l-0.188-0.051l-0.221,0.034l-0.118-0.017l-0.357-0.017L84.639,32.3
			l0.018-0.356l0.033-0.187l-0.017-0.17l-0.051-0.153V31.28l0.067-0.153l-0.051-0.153l0.018-0.187l-0.018-0.153l-0.017-0.221
			l0.034-0.119l0.033-0.153l-0.017-0.204l-0.034-0.187l0.034-0.119l-0.034-0.204l0.018-0.119l-0.034-0.187l0.051-0.153l-0.034-0.153
			l-0.017-0.374l0.017-0.187v-0.339l-0.017-0.136l0.067-0.187l-0.067-0.17l0.067-0.187l-0.033-0.169l0.033-0.136l-0.017-0.187
			l-0.017-0.187v-0.356l0.033-0.153l-0.017-0.187l-0.034-0.306l0.051-0.221l-0.051-0.153l-0.017-0.187l0.067-0.169l-0.017-0.17
			l0.017-0.153l-0.067-0.153v-0.357l0.017-0.17l0.051-0.169v-0.34l-0.033-0.17l-0.018-0.187l0.018-0.17l0.033-0.187l-0.017-0.17
			v-0.187l-0.034-0.34l0.034-0.153l0.034-0.17l0.136-0.153l0.102-0.187l0.221-0.238l0.136-0.136l0.17-0.102l0.136-0.136l0.307-0.153
			h0.169l0.204,0.017l0.561-0.017L87,20.513l0.136-0.034h0.152l0.153,0.034l0.17-0.034l0.203,0.034l0.136-0.034l0.17-0.017
			l0.289,0.034l0.237,0.017l0.119-0.051l0.34,0.017l0.152,0.034l0.153,0.085l0.152,0.238l0.153,0.119l0.085,0.102l0.119,0.119
			l0.322,0.204l0.068,0.136v0.17v0.34L90.379,22.161z M85.216,29.667v-0.034l-0.017,0.051L85.216,29.667z M85.25,23.791v-0.068
			l0.018,0.051l0.017,0.051L85.25,23.791z M85.335,23.316l0.034,0.017l0.034-0.102l-0.119,0.017L85.335,23.316z M85.386,22.399
			l-0.017-0.017l-0.051-0.017L85.386,22.399z M85.523,26.729l-0.119-0.136l-0.068,0.034v0.051l0.018,0.17L85.523,26.729z
			 M85.386,25.778l0.052,0.017h0.017L85.386,25.778z M85.692,29.939l-0.169-0.034l-0.119,0.068l0.119,0.034v0.051l-0.068,0.136
			l0.017,0.085l0.085-0.068l0.051-0.153l0.052-0.085L85.692,29.939z M85.438,26.237l0.118,0.034l-0.017-0.102l-0.119-0.051
			L85.438,26.237z M85.471,27.901l0.034-0.034l-0.017,0.034l-0.051,0.017L85.471,27.901z M85.539,22.127l0.034-0.119l-0.018-0.017
			l-0.102,0.102L85.539,22.127z M85.574,27.052h-0.018l-0.102-0.017l0.034,0.068L85.574,27.052z M85.505,27.205l-0.034,0.085
			l0.052-0.017L85.505,27.205z M85.556,22.738l0.068-0.017l-0.102-0.068l-0.034,0.051L85.556,22.738z M85.556,28.071h-0.067v-0.017
			v0.085L85.556,28.071z M85.556,27.595l-0.017,0.051l-0.034-0.034l0.018,0.034L85.556,27.595z M85.556,21.889l0.018-0.051h-0.034
			L85.556,21.889z M85.539,24.233l0.017,0.068l0.051-0.034L85.539,24.233z M85.624,28.529l-0.051,0.017l-0.018,0.034l0.136,0.017
			L85.624,28.529z M85.675,30.856l0.017-0.068l-0.085,0.017l-0.033,0.068L85.675,30.856z M85.658,23.383h-0.034l0.085,0.051
			L85.658,23.383z M85.692,31.298l-0.051-0.034l0.034,0.051L85.692,31.298z M85.709,27.222l-0.018-0.051h-0.033L85.709,27.222z
			 M85.675,21.498l0.017,0.051l0.068-0.102l-0.068,0.017L85.675,21.498z M85.811,25.031l-0.085-0.034l-0.051,0.153l0.119-0.051
			L85.811,25.031z M85.76,28.75l-0.034-0.051l-0.051,0.051l0.085,0.034V28.75z M85.709,23.927l0.034-0.068L85.709,23.927z
			 M85.777,26.186l0.018,0.017v-0.102l-0.085,0.034L85.777,26.186z M85.811,21.872l0.018-0.102l-0.018,0.017l-0.067,0.085H85.811z
			 M85.777,23.604l-0.033,0.068l0.017,0.017L85.777,23.604z M85.743,26.661v0.068l0.017-0.051l0.051-0.017H85.743z M86.015,21.515
			l-0.068-0.034l-0.085-0.017l0.052,0.051H86.015z M85.879,22.331l0.051,0.017l-0.034,0.034h0.034L85.879,22.331z M85.879,29.073
			l0.017,0.034l0.085,0.017l-0.067-0.034L85.879,29.073z M85.896,26.967l0.051,0.136l-0.017,0.034l0.067-0.136l-0.051-0.085
			l0.034-0.051v-0.051L85.896,26.967z M85.997,25.54l0.068-0.085h-0.119l-0.017,0.119L85.997,25.54z M85.964,26.356l0.017-0.034
			h0.051H86.1h-0.103L85.964,26.356z M85.964,29.549l0.067,0.017l-0.034-0.034L85.964,29.549z M86.049,30.483h-0.034l-0.018,0.051
			L86.049,30.483z M86.201,26.729l-0.085-0.017l0.034,0.034L86.201,26.729z M86.185,27.12v0.034l-0.068-0.034l0.018-0.051
			l0.067-0.034h-0.017V27.12z M86.355,26.05l-0.085-0.017l-0.018,0.102h0.103V26.05z M86.473,21.753l0.052,0.034l0.017-0.017h-0.017
			L86.473,21.753z M88.426,25.065l0.018-0.136v-0.153l0.051-0.17L88.46,24.42l-0.034-0.153l0.034-0.187l-0.017-0.136V23.74
			l0.051-0.17l-0.017-0.153l-0.052-0.136l0.068-0.221l-0.017-0.102l0.017-0.17l-0.102-0.34l-0.323-0.051l-0.17-0.034l-0.102,0.017
			l-0.204-0.017l-0.17,0.034l-0.187-0.017l-0.322-0.017l-0.34,0.034l-0.051,0.323l0.033,0.187l0.034,0.17v0.153l-0.067,0.204v0.119
			l0.017,0.204l0.017,0.306l0.034,0.17l-0.051,0.187l-0.017,0.153l0.051,0.187v0.136l-0.034,0.169l0.051,0.374h0.34l0.152,0.017
			l0.137-0.017h0.373l0.187,0.034l0.153-0.034h0.187l0.272-0.017L88.426,25.065z M86.796,26.696l-0.119-0.017l-0.017,0.085
			l0.051,0.034L86.796,26.696z M86.762,21.43l0.017,0.034l-0.051,0.017L86.762,21.43z M86.898,26.203l-0.051,0.119l0.119-0.051
			L86.898,26.203z M87.153,21.278l0.034-0.034h-0.085v0.034H87.153z M87.543,21.498l-0.051-0.034v0.051L87.543,21.498z
			 M87.543,26.627l0.051-0.034l0.018,0.051h-0.018L87.543,26.627z M87.662,21.21l0.085-0.187l-0.085-0.034l-0.085,0.238
			L87.662,21.21z M87.713,21.821l0.102,0.085l0.034-0.051l-0.136-0.068V21.821z M87.798,26.237l-0.018-0.051l-0.033,0.034
			L87.798,26.237z M87.917,21.176l0.085,0.034l-0.034-0.085l-0.103-0.034L87.917,21.176z M88.053,26.559l-0.068-0.017h0.034
			l-0.017,0.034L88.053,26.559z M88.053,21.447l0.067-0.051l0.068-0.136l-0.051,0.068L88.053,21.447z M88.426,26.576l-0.017,0.102
			l-0.085,0.119l0.102-0.085V26.576z M88.409,21.482l-0.051,0.017l0.017,0.051L88.409,21.482z M88.46,21.176l0.068,0.034
			l-0.051-0.017L88.46,21.176z M88.664,21.176l-0.018,0.068l0.034,0.017L88.664,21.176z M88.851,21.736H88.8l-0.051,0.068
			l0.067-0.017L88.851,21.736z M88.936,22.721h-0.034l-0.034,0.034L88.936,22.721z M88.936,27.307v0.051v0.017h0.034L88.936,27.307z
			 M88.987,26.321l0.018-0.068L88.97,26.22l-0.018,0.051L88.987,26.321z M89.004,29.65l0.033,0.034l0.018-0.017L89.004,29.65z
			 M89.106,26.593l-0.051-0.017l-0.034,0.017h0.034H89.106z M89.225,22.008l-0.051,0.017l-0.018-0.034l-0.085,0.034h0.103
			L89.225,22.008z M89.14,24.318L89.122,24.3l-0.051,0.017H89.14z M89.089,29.99l0.033,0.102l0.018-0.034L89.089,29.99z
			 M89.191,22.212l-0.051,0.051l-0.034,0.051l0.068,0.017L89.191,22.212z M89.14,25.337l0.034,0.017l0.033-0.085l-0.033-0.034
			L89.14,25.337z M89.241,27.29l0.017-0.068l-0.118,0.085L89.241,27.29z M89.207,23.163l-0.017-0.017l-0.017,0.085l0.067-0.017
			L89.207,23.163z M89.377,25.659l-0.085-0.051l-0.034-0.017l-0.033,0.034l-0.034,0.051l0.085,0.017l0.067,0.017L89.377,25.659z
			 M89.191,28.614l0.102-0.034v-0.051l-0.051-0.017L89.191,28.614z M89.377,22.806l-0.034-0.119l-0.033,0.034l-0.068,0.068
			L89.377,22.806z M89.428,28.954l-0.051-0.169l-0.102-0.017l0.067,0.17L89.428,28.954z M89.377,23.876l-0.085,0.085h0.034
			L89.377,23.876z M89.326,30.262l0.034,0.051l0.017-0.017L89.326,30.262z M89.428,24.946l-0.051,0.034l-0.017-0.034v0.034
			L89.428,24.946z M89.547,29.599l-0.034-0.085l-0.136-0.017l0.034,0.119L89.547,29.599z M89.513,24.657l-0.102,0.017v0.102
			l0.051-0.017L89.513,24.657z M89.496,30.568l0.051-0.017l-0.067-0.034l-0.052-0.017L89.496,30.568z M89.48,25.32l-0.034-0.017
			l0.017,0.051l0.068,0.017L89.48,25.32z M89.513,22.382l0.034-0.051h-0.017l-0.068-0.017L89.513,22.382z M89.496,24.403
			l0.017-0.017l-0.051-0.017L89.496,24.403z M89.547,27.476l-0.017-0.051l-0.034-0.051l-0.034,0.102H89.547z M89.462,27.714v-0.051
			l0.034-0.034l-0.034,0.051V27.714z M89.547,26.254l-0.017-0.034l-0.051,0.051L89.547,26.254z M89.496,28.156l0.034-0.017
			l0.017-0.102l-0.067,0.051L89.496,28.156z M89.531,30.975l-0.018,0.017l-0.033,0.017l0.033,0.017L89.531,30.975z M89.496,25.489
			l0.085,0.034H89.7l-0.103-0.102L89.496,25.489z M89.496,26.101l0.051,0.017v-0.051L89.496,26.101z M89.531,28.699l0.033,0.051
			l0.034-0.017l-0.051-0.034H89.531z M89.598,29.701v0.051l-0.051-0.034L89.598,29.701z M89.632,28.988h-0.068l0.052-0.034
			L89.632,28.988z M89.734,24.776v-0.034h-0.051l-0.034,0.102L89.734,24.776z M89.666,30.346l0.067-0.034h-0.067V30.346z
			 M89.785,23.893l-0.034-0.051l0.017,0.034l-0.017-0.017L89.785,23.893z M89.853,24.233l-0.085,0.034l0.051-0.034H89.853z"/>
		<path class="st0" d="M96.766,30.941l-0.051,0.136l-0.017,0.221l0.034,0.119l0.033,0.221l-0.033,0.153l0.017,0.187v0.357
			l-0.136,0.102l-0.374-0.017h-0.17l-0.152-0.034h-0.17l-0.153,0.051l-0.169-0.017l-0.153,0.017l-0.17-0.051h-0.221l-0.17,0.017
			l-0.152,0.017l-0.204-0.017h-0.17l-0.17,0.017l-0.17-0.034l-0.152,0.034l-0.374,0.017l-0.136-0.017l-0.17-0.017l-0.136,0.034
			l-0.407-0.017l-0.103-0.153l0.018-0.357l-0.018-0.136V31.57l0.051-0.153V31.28l-0.017-0.221v-0.136l-0.051-0.187l0.051-0.136
			l-0.017-0.204l0.017-0.119l0.017-0.204l-0.051-0.136l-0.017-0.204l0.051-0.356v-0.153l-0.017-0.17l0.033-0.136l-0.017-0.153
			l0.017-0.204l-0.017-0.136l-0.017-0.187l-0.034-0.187l0.017-0.17l0.034-0.17l0.017-0.153l-0.067-0.153l0.034-0.17l-0.034-0.169
			v-0.187l0.017-0.119v-0.187l0.034-0.323v-0.153l0.017-0.17l-0.067-0.169l0.051-0.221v-0.136l-0.034-0.153l-0.017-0.153
			l0.067-0.204l-0.051-0.153l0.034-0.204l0.017-0.119l-0.033-0.17l-0.018-0.204l0.018-0.187l0.033-0.136l-0.033-0.153l-0.018-0.17
			v-0.153l0.051-0.17l-0.033-0.17l0.017-0.221l-0.034-0.136l0.034-0.187l-0.017-0.187l0.017-0.17l-0.034-0.102l0.018-0.17
			l0.017-0.204l-0.017-0.17l-0.018-0.136l-0.017-0.306l0.067-0.221l0.052-0.17l0.118-0.068h0.306l0.238,0.017l0.102,0.034
			l0.187-0.051h0.188l0.152,0.051h0.34l0.102,0.068l0.018,0.374l0.017,0.153l-0.034,0.187l0.018,0.153L94.201,21.6l0.034,0.136
			l0.034,0.187v0.17l-0.034,0.17v0.306l-0.034,0.221l0.052,0.153l-0.034,0.136l0.051,0.153v0.357l-0.068,0.169l0.068,0.204
			l-0.051,0.136l-0.018,0.17l0.068,0.204l-0.051,0.136l0.017,0.17l0.018,0.204v0.187l-0.034,0.136l0.051,0.204l-0.068,0.119
			l0.068,0.204l-0.051,0.187l0.034,0.136l0.017,0.153l-0.068,0.187l0.068,0.187l-0.034,0.17l-0.017,0.169l-0.018,0.153l0.068,0.187
			l-0.068,0.187l0.034,0.187l0.018,0.119l-0.018,0.187l0.018,0.153l-0.052,0.17l0.068,0.17l-0.017,0.17v0.17l-0.018,0.221
			l0.034,0.187l-0.051,0.119v0.204l0.051,0.153l-0.034,0.153l-0.017,0.323l0.034,0.204l0.118,0.102l0.103-0.034h0.391h0.288
			l0.136-0.017l0.17,0.034h0.374l0.119,0.017l0.187-0.034l0.204,0.017l0.356,0.034L96.766,30.941z M92.996,26.406l-0.085-0.051
			l0.033,0.085v-0.017L92.996,26.406z M93.03,24.844h0.085l-0.067-0.068l-0.068,0.051L93.03,24.844z M92.996,23.978l0.085-0.051
			l-0.034,0.017h-0.051V23.978z M93.115,30.16l-0.102-0.051l0.085,0.136h0.017V30.16z M93.132,29.752l-0.018-0.051h-0.067
			L93.132,29.752z M93.064,26.661l0.051,0.051v-0.034L93.064,26.661z M93.199,25.744l-0.033-0.051l-0.052,0.068L93.199,25.744z
			 M93.199,28.716l0.018-0.068l-0.103,0.034l0.068,0.068L93.199,28.716z M93.199,23.265l-0.051-0.034l0.051,0.017V23.265z
			 M93.199,22.501l0.052-0.034h-0.052V22.501z M93.251,26.22l-0.052,0.068l0.085,0.017l-0.017-0.085H93.251z M93.268,29.786
			l0.102-0.085l-0.085-0.068h-0.085v0.102L93.268,29.786z M93.251,22.993l-0.018,0.034l0.018-0.085l-0.034,0.017L93.251,22.993z
			 M93.251,29.599l0.017-0.017l0.034-0.017L93.251,29.599z M93.319,21.753l-0.051,0.034l0.051,0.034V21.753z M93.284,26.933h-0.017
			l0.051,0.034L93.284,26.933z M93.284,30.296l0.068,0.102l0.017-0.051L93.284,30.296z M93.438,24.012l-0.136,0.017l0.102,0.051
			l0.034,0.017V24.012z M93.335,27.408l0.068-0.017h-0.051l-0.034,0.034L93.335,27.408z M93.387,30.007h-0.018l-0.034,0.034
			L93.387,30.007z M93.335,30.771l0.085-0.034l-0.017,0.034H93.335z M93.387,23.757v-0.034l0.017-0.051v0.017L93.387,23.757z
			 M93.42,26.78l0.068-0.017v0.034L93.42,26.78z M93.438,29.735l0.034-0.017l-0.052,0.034L93.438,29.735z M93.438,26.186
			l0.085-0.034h-0.051L93.438,26.186z M93.454,29.412l0.085,0.051v-0.068L93.454,29.412z M93.489,22.178l0.034-0.034L93.489,22.178z
			 M93.574,25.302l-0.068-0.051l0.052,0.034L93.574,25.302z M93.642,30.822l-0.103-0.017l0.018,0.068l0.085-0.017V30.822z
			 M93.624,29.158l-0.034,0.017l0.052,0.017L93.624,29.158z M93.624,29.769l0.034,0.051l-0.068-0.034L93.624,29.769z M93.709,30.075
			h-0.067l0.067,0.051V30.075z M93.709,27.51h0.034l-0.068-0.068l0.085,0.034L93.709,27.51z M93.726,23.401l0.018-0.017h-0.051
			L93.726,23.401z M93.76,30.55v-0.034l-0.034,0.085L93.76,30.55z M93.794,31.06l-0.051,0.017l-0.018-0.017l0.085,0.034
			L93.794,31.06z M94.116,31.637l-0.067,0.085v0.085l0.085-0.034L94.116,31.637z M94.491,31.705l-0.051,0.034l0.017,0.034
			l0.034-0.017V31.705z M94.66,31.026l-0.017,0.034l0.033,0.017L94.66,31.026z M94.729,31.841l-0.018,0.068l0.085-0.051
			L94.729,31.841z M94.949,31.433l-0.085-0.017h0.033l0.068,0.034L94.949,31.433z M95.17,31.247l-0.034,0.017l-0.034,0.051h0.102
			L95.17,31.247z"/>
		<path class="st0" d="M108.588,26.678l0.271,0.238l0.085,0.136l0.119,0.136l0.255,0.221l0.085,0.136l0.034,0.356v0.17l-0.068,0.204
			l0.034,0.119l-0.034,0.221v0.17l0.068,0.153v0.169l-0.068,0.119v0.204l0.017,0.17l-0.017,0.187l0.034,0.119l-0.034,0.221v0.153
			l0.034,0.187l-0.034,0.136l0.068,0.204l-0.052,0.119l0.018,0.187l0.017,0.136l-0.017,0.17l0.034,0.221l-0.068,0.119l0.034,0.221
			l0.034,0.306l-0.17,0.084l-0.34,0.068l-0.102-0.034h-0.306l-0.222-0.017l-0.118,0.051l-0.221-0.017h-0.357l-0.067-0.136v-0.408
			v-0.136l-0.034-0.17l0.018-0.204v-0.119l-0.034-0.17l0.067-0.187l-0.067-0.187l0.034-0.153l0.033-0.187l-0.033-0.153v-0.187
			l0.017-0.119l0.017-0.187v-0.357v-0.136l-0.017-0.221v-0.17l-0.017-0.119l0.017-0.169l-0.017-0.17v-0.34l-0.052-0.221l0.018-0.17
			l-0.188-0.051l-0.187-0.017l-0.322,0.051l-0.188-0.017l-0.152-0.034h-0.17l-0.153,0.034l-0.136-0.017l-0.306,0.017l-0.152,0.119
			l0.034,0.323l-0.052,0.153l0.068,0.17l-0.051,0.187l-0.018,0.17l0.052,0.221l-0.068,0.17l0.068,0.136v0.153v0.204l-0.052,0.204
			l0.034,0.136l-0.017,0.187l0.034,0.17l-0.034,0.136l-0.034,0.204l0.068,0.204l-0.068,0.119l0.051,0.357l-0.017,0.17l0.034,0.136
			v0.187l-0.052,0.187l-0.033,0.323l-0.374,0.051l-0.119,0.034l-0.17,0.017l-0.152-0.034h-0.323l-0.169,0.017l-0.374-0.017
			l-0.068-0.153l-0.033-0.34v-0.153l0.017-0.17v-0.374v-0.356l-0.051-0.136l0.034-0.204l-0.018-0.17v-0.169l0.051-0.17l-0.051-0.17
			l0.034-0.153v-0.17l-0.051-0.187l0.067-0.187v-0.187l-0.017-0.153l0.017-0.322l-0.067-0.187l0.051-0.136l-0.034-0.204l0.051-0.169
			l-0.067-0.153l0.051-0.169l-0.034-0.187l0.018-0.153v-0.221l0.033-0.119l-0.051-0.187l0.051-0.34l-0.067-0.17l0.067-0.204
			l-0.067-0.153l0.034-0.136l-0.018-0.204l0.051-0.136l-0.051-0.17l-0.017-0.187v-0.374l0.034-0.153l0.017-0.136l-0.051-0.187
			l0.017-0.153l0.051-0.17v-0.34l-0.051-0.204l-0.017-0.187l0.034-0.119l0.033-0.204l-0.067-0.136l0.034-0.221l0.017-0.153
			l-0.017-0.136l0.033-0.187v-0.17l-0.067-0.187v-0.153l0.051-0.17v-0.187l-0.034-0.306l0.103-0.17l0.067-0.017l0.391-0.017
			l0.136,0.051l0.188-0.017h0.152l0.17-0.017h0.204l0.085-0.017l0.221,0.034l0.187,0.017h0.102l0.17-0.051h0.221l0.136,0.051
			l0.221-0.051l0.137,0.034l0.17-0.017l0.136-0.017l0.187,0.017l0.204,0.034l0.118-0.017h0.17l0.17,0.017l0.187-0.051l0.51,0.102
			l0.289,0.272l0.187,0.119l0.068,0.136l0.118,0.153l0.222,0.221l0.102,0.119l0.034,0.34l-0.068,0.17l0.017,0.204l0.018,0.136v0.187
			l0.034,0.136v0.17l-0.052,0.187l0.018,0.153l-0.034,0.221l0.034,0.17v0.153l0.017,0.204v0.306l0.018,0.17l-0.018,0.187
			l-0.017,0.136l0.034,0.187l-0.052,0.153l0.034,0.187l-0.067,0.323l-0.018,0.153l-0.203,0.187l-0.153,0.153l-0.067,0.102
			l-0.103,0.085l-0.221,0.238V26.678z M104.19,27.375l-0.085-0.051l0.034,0.034l0.051,0.034V27.375z M104.139,22.585l0.034,0.034
			l0.051-0.051L104.139,22.585z M104.309,27.986l0.033,0.017l-0.017-0.085l-0.085,0.017L104.309,27.986z M104.309,29.514
			l-0.068-0.017l0.051,0.034L104.309,29.514z M104.309,30.431l-0.052-0.051l0.018,0.017L104.309,30.431z M104.291,29.328
			l0.068-0.068l-0.018-0.017l-0.067,0.051L104.291,29.328z M104.394,24.572l-0.085-0.017l0.067,0.034L104.394,24.572z
			 M104.309,31.111l0.067,0.017l-0.051,0.034L104.309,31.111z M104.325,23.74l0.051-0.051h-0.017L104.325,23.74z M104.495,26.661
			l-0.051-0.136l-0.119-0.017l0.051,0.068L104.495,26.661z M104.427,29.99l-0.017,0.034l-0.068,0.017h0.052L104.427,29.99z
			 M104.427,24.046l-0.033,0.034l0.102,0.017l-0.068-0.034V24.046z M104.394,27.205l0.033-0.017l-0.017-0.017L104.394,27.205z
			 M104.427,24.929l0.052,0.051l0.017-0.085h-0.068V24.929z M104.445,22.738l0.034,0.034l0.067-0.153h-0.102V22.738z
			 M104.495,25.744l-0.051-0.051v0.187l0.067,0.068L104.495,25.744z M104.495,30.72l-0.051-0.017l0.034-0.017L104.495,30.72z
			 M104.648,22.093l-0.017-0.204l-0.085,0.034l-0.085,0.17H104.648z M104.53,28.394l-0.068-0.051l0.034,0.017L104.53,28.394z
			 M104.597,22.484l-0.017-0.051l-0.085,0.085l0.085,0.051L104.597,22.484z M104.495,27.68l0.034,0.034l0.017,0.051l0.034-0.085
			H104.495z M104.546,25.15l-0.017,0.034l-0.018,0.051l0.068-0.051L104.546,25.15z M104.53,26.916l0.034,0.051l0.033-0.017
			L104.53,26.916z M104.682,29.769l-0.152,0.068l0.102,0.085l0.119,0.017L104.682,29.769z M104.631,23.604l-0.051,0.017v0.034
			L104.631,23.604z M104.648,27.85h-0.017l-0.034,0.034L104.648,27.85z M104.597,30.143l0.051,0.034l0.034-0.017L104.597,30.143z
			 M104.648,23.333l0.153,0.017l-0.034-0.136l-0.152-0.034L104.648,23.333z M104.648,30.415v-0.034l-0.017,0.051l0.085-0.017
			H104.648z M104.648,30.703v0.034l0.052,0.017L104.648,30.703z M104.716,21.685v-0.034l0.034-0.034h-0.034V21.685z M104.75,26.712
			v0.051l-0.034-0.034v0.017L104.75,26.712z M104.767,29.277l-0.051,0.017l0.051-0.034V29.277z M104.767,23.571v0.051l-0.017,0.034
			l0.034-0.051L104.767,23.571z M104.818,27.29l-0.033-0.034l-0.018,0.017L104.818,27.29z M104.852,27.901l-0.085-0.034
			L104.852,27.901z M104.767,28.275l0.051,0.051l0.018-0.051H104.767z M104.818,31.535l-0.051,0.017l0.051,0.017V31.535z
			 M104.971,26.559l-0.034,0.017h-0.051l0.034,0.017L104.971,26.559z M104.92,25.235h0.017l0.018-0.017l-0.034-0.051V25.235z
			 M105.005,21.906l0.051-0.034h-0.051h-0.051l0.067,0.085L105.005,21.906z M105.056,30.55l-0.102-0.051l0.017,0.085l0.136,0.051
			L105.056,30.55z M104.988,27.018l0.051-0.102l-0.067,0.017l0.017,0.034V27.018z M105.038,27.273l0.018-0.034l0.017-0.034
			l-0.102-0.017L105.038,27.273z M105.022,21.244l-0.034,0.034l0.051-0.051l-0.017-0.068V21.244z M105.005,22.042l0.033,0.085
			l-0.017-0.051h0.034L105.005,22.042z M105.038,26.288v0.017l-0.033-0.034L105.038,26.288z M105.412,27.103l-0.152,0.017
			l-0.034,0.085l0.136-0.034L105.412,27.103z M105.242,21.227l0.103-0.051l-0.068-0.017L105.242,21.227z M105.311,27.29v0.102
			l0.034,0.017l0.017-0.085L105.311,27.29z M105.345,21.668v0.034l0.017,0.051v-0.068L105.345,21.668z M107.552,25.184V24.98
			l-0.067-0.187V24.64l0.017-0.153l-0.017-0.238v-0.136v-0.153l0.051-0.221l0.017-0.187v-0.153l-0.017-0.17v-0.153l-0.017-0.204
			l0.033-0.153l-0.102-0.374h-0.356l-0.103,0.017l-0.17-0.034l-0.169,0.017h-0.17l-0.204,0.017l-0.153-0.051h-0.221l-0.356,0.051
			l-0.017,0.408l0.017,0.153v0.221l0.018,0.17l-0.068,0.136v0.17l0.034,0.187l-0.018,0.374l0.034,0.17l0.018,0.153l-0.068,0.136
			v0.187l0.017,0.136l0.018,0.17l0.034,0.153l0.017,0.323l0.322,0.102h0.357l0.187-0.051h0.322l0.17,0.017l0.204,0.034l0.34-0.068
			l0.067-0.306V25.184z M105.786,26.712l-0.068-0.017l-0.051-0.051l0.017,0.051L105.786,26.712z M105.718,27.171l0.034-0.034
			l0.034,0.085v-0.051H105.718z M105.752,21.329l0.034,0.017v0.034L105.752,21.329z M105.956,26.288l-0.018-0.051l-0.102,0.017
			l0.034,0.051L105.956,26.288z M105.939,26.491v-0.034l-0.051,0.068h0.017L105.939,26.491z M106.143,26.95l0.067,0.034
			l-0.051,0.034l0.051-0.068H106.143z M106.279,21.668l-0.017-0.102l0.017,0.017v0.034V21.668z M106.499,26.424l-0.136,0.017
			l0.067,0.102L106.499,26.424z M106.991,21.685l0.034,0.034L106.991,21.685l-0.051,0.034L106.991,21.685z M107.161,21.482
			l0.018-0.102l-0.103,0.085v0.068l0.052,0.017L107.161,21.482z M107.196,26.78l-0.034-0.034l-0.051,0.085h0.034L107.196,26.78z
			 M107.434,21.091l0.085-0.034l-0.052-0.017h-0.017L107.434,21.091z M107.45,26.814l0.051-0.017L107.45,26.814z M107.552,21.872
			v-0.034l0.034,0.017l-0.017-0.051L107.552,21.872z M107.74,21.719l-0.034-0.017l0.034,0.119l0.102-0.017l-0.068-0.102
			L107.74,21.719z M107.926,26.882l0.034-0.017L107.926,26.882z M108.028,25.404l-0.017,0.017h-0.051v0.051L108.028,25.404z
			 M108.045,21.515l0.067,0.051L108.045,21.515z M108.13,24.403l-0.034,0.017l0.067,0.068l-0.017-0.051L108.13,24.403z
			 M108.181,23.163l-0.034,0.068h0.085l0.051-0.051L108.181,23.163z M108.163,27.188l0.068-0.068l0.067-0.051l-0.102,0.034
			L108.163,27.188z M108.283,29.531l-0.017-0.034l-0.085,0.017l0.017,0.068l0.034-0.051H108.283z M108.198,25.404v0.017l0.034,0.017
			L108.198,25.404z M108.333,31.111l-0.118-0.051l0.017,0.136L108.333,31.111z M108.418,28.767l0.051-0.017l-0.051,0.034v0.068
			l-0.17,0.136l0.136,0.085l0.085-0.102l0.103-0.136L108.418,28.767z M108.351,22.772l-0.085-0.034l0.017-0.017L108.351,22.772z
			 M108.266,30.483l0.017,0.034l0.017-0.051L108.266,30.483z M108.317,22.161h0.034l-0.018-0.068v0.051L108.317,22.161z
			 M108.384,31.162l-0.051,0.034l0.051,0.034V31.162z M108.402,24.623v-0.017l-0.051,0.017H108.402z M108.537,23.333l-0.17,0.051
			l0.034,0.153l0.17-0.034L108.537,23.333z M108.452,24.352l-0.034-0.034v0.051L108.452,24.352z M108.537,23.214l0.067-0.034
			l-0.102-0.017h-0.051L108.537,23.214z M108.487,27.443l0.034,0.068l-0.052,0.017l0.068-0.034L108.487,27.443z M108.503,29.022
			l0.018,0.017l-0.034,0.017l0.067,0.034L108.503,29.022z M108.521,30.771l0.017,0.017l-0.034-0.034L108.521,30.771z
			 M108.554,25.422l-0.033,0.085h0.051L108.554,25.422z M108.707,28.309l-0.051-0.034l-0.034,0.068L108.707,28.309z M108.69,25.048
			l0.119-0.017l-0.017-0.119l-0.136,0.051L108.69,25.048z M108.877,24.182l-0.018-0.068l-0.033-0.051l-0.018,0.051L108.877,24.182z"
			/>
		<path class="st0" d="M117.166,22.161v0.17l-0.067,0.153v0.17l0.067,0.221l-0.051,0.136l0.017,0.187l-0.033,0.153l0.051,0.169
			v0.221l-0.018,0.153l-0.017,0.153l0.051,0.204l-0.067,0.153l0.033,0.17l0.018,0.136l-0.018,0.187v0.153l0.034,0.187l-0.067,0.187
			l0.033,0.153l0.034,0.204v0.136v0.204v0.187l-0.034,0.169v0.119l-0.017,0.187v0.323v0.17l-0.017,0.221l0.033,0.119l-0.017,0.187
			v0.153l0.017,0.187l0.034,0.153l-0.051,0.187l0.051,0.136l-0.051,0.221l0.034,0.153l0.017,0.187l-0.034,0.119v0.17l0.034,0.17
			l-0.067,0.153l0.067,0.17v0.187l-0.067,0.204l0.033,0.119l-0.033,0.221l0.017,0.17l0.017,0.153l-0.017,0.17l0.034,0.17
			l0.017,0.153l-0.051,0.187l0.017,0.17l0.018,0.306l-0.085,0.221l-0.17,0.034h-0.356l-0.103,0.017l-0.203-0.051l-0.187,0.017
			l-0.102,0.017l-0.221-0.017h-0.306l-0.152-0.085l-0.018-0.119l-0.051-0.357l0.051-0.204l0.018-0.119l-0.034-0.221l-0.018-0.119
			v-0.187l0.052-0.17l-0.068-0.153l0.068-0.187l-0.052-0.187l0.018-0.17v-0.153l0.017-0.187v-0.187l-0.034-0.153l0.018-0.187
			l0.017-0.169l-0.051-0.153l0.068-0.17V28.41l-0.052-0.136l-0.017-0.17l0.034-0.136l0.034-0.153l-0.052-0.408h-0.407h-0.119h-0.221
			l-0.187-0.034l-0.17,0.034l-0.119-0.017l-0.203-0.034l-0.307,0.017l-0.118,0.153l-0.018,0.289l-0.017,0.187l0.017,0.153
			l-0.033,0.221l0.017,0.153l-0.017,0.187l0.017,0.17l0.017,0.153l-0.033,0.136l-0.018,0.169l0.051,0.17l-0.033,0.204l0.033,0.306
			l-0.033,0.187l0.033,0.187l-0.017,0.339l-0.017,0.136l0.033,0.136l-0.051,0.17l0.051,0.153l0.018,0.17v0.169v0.153l-0.034,0.17
			l-0.051,0.357l-0.374,0.051l-0.136,0.034l-0.204-0.017l-0.118,0.017l-0.188-0.051l-0.221,0.034l-0.118-0.017l-0.357-0.017
			l-0.136-0.085l0.018-0.356l0.033-0.187l-0.017-0.17l-0.051-0.153V31.28l0.067-0.153l-0.051-0.153l0.018-0.187l-0.018-0.153
			l-0.017-0.221l0.034-0.119l0.033-0.153l-0.017-0.204l-0.034-0.187l0.034-0.119l-0.034-0.204l0.018-0.119l-0.034-0.187l0.051-0.153
			l-0.034-0.153l-0.017-0.374l0.017-0.187v-0.339l-0.017-0.136l0.067-0.187l-0.067-0.17l0.067-0.187l-0.033-0.169l0.033-0.136
			l-0.017-0.187l-0.017-0.187v-0.356l0.033-0.153l-0.017-0.187l-0.034-0.306l0.051-0.221l-0.051-0.153l-0.017-0.187l0.067-0.169
			l-0.017-0.17l0.017-0.153l-0.067-0.153v-0.357l0.017-0.17l0.051-0.169v-0.34l-0.033-0.17l-0.018-0.187l0.018-0.17l0.033-0.187
			l-0.017-0.17v-0.187l-0.034-0.34l0.034-0.153l0.034-0.17l0.136-0.153l0.102-0.187l0.221-0.238l0.136-0.136l0.17-0.102l0.136-0.136
			l0.307-0.153h0.169l0.204,0.017l0.561-0.017l0.153,0.034l0.136-0.034h0.152l0.153,0.034l0.17-0.034l0.203,0.034l0.136-0.034
			l0.17-0.017l0.289,0.034l0.237,0.017l0.119-0.051l0.34,0.017l0.152,0.034l0.153,0.085l0.152,0.238l0.153,0.119l0.085,0.102
			l0.119,0.119l0.322,0.204l0.068,0.136v0.17v0.34L117.166,22.161z M112.003,29.667v-0.034l-0.017,0.051L112.003,29.667z
			 M112.037,23.791v-0.068l0.018,0.051l0.017,0.051L112.037,23.791z M112.122,23.316l0.034,0.017l0.034-0.102l-0.119,0.017
			L112.122,23.316z M112.173,22.399l-0.017-0.017l-0.051-0.017L112.173,22.399z M112.31,26.729l-0.119-0.136l-0.068,0.034v0.051
			l0.018,0.17L112.31,26.729z M112.173,25.778l0.052,0.017h0.017L112.173,25.778z M112.479,29.939l-0.169-0.034l-0.119,0.068
			l0.119,0.034v0.051l-0.068,0.136l0.017,0.085l0.085-0.068l0.051-0.153l0.052-0.085L112.479,29.939z M112.225,26.237l0.118,0.034
			l-0.017-0.102l-0.119-0.051L112.225,26.237z M112.258,27.901l0.034-0.034l-0.017,0.034l-0.051,0.017L112.258,27.901z
			 M112.326,22.127l0.034-0.119l-0.018-0.017l-0.102,0.102L112.326,22.127z M112.361,27.052h-0.018l-0.102-0.017l0.034,0.068
			L112.361,27.052z M112.292,27.205l-0.034,0.085l0.052-0.017L112.292,27.205z M112.343,22.738l0.068-0.017l-0.102-0.068
			l-0.034,0.051L112.343,22.738z M112.343,28.071h-0.067v-0.017v0.085L112.343,28.071z M112.343,27.595l-0.017,0.051l-0.034-0.034
			l0.018,0.034L112.343,27.595z M112.343,21.889l0.018-0.051h-0.034L112.343,21.889z M112.326,24.233l0.017,0.068l0.051-0.034
			L112.326,24.233z M112.411,28.529l-0.051,0.017l-0.018,0.034l0.136,0.017L112.411,28.529z M112.462,30.856l0.017-0.068
			l-0.085,0.017l-0.033,0.068L112.462,30.856z M112.446,23.383h-0.034l0.085,0.051L112.446,23.383z M112.479,31.298l-0.051-0.034
			l0.034,0.051L112.479,31.298z M112.496,27.222l-0.018-0.051h-0.033L112.496,27.222z M112.462,21.498l0.017,0.051l0.068-0.102
			l-0.068,0.017L112.462,21.498z M112.598,25.031l-0.085-0.034l-0.051,0.153l0.119-0.051L112.598,25.031z M112.547,28.75
			l-0.034-0.051l-0.051,0.051l0.085,0.034V28.75z M112.496,23.927l0.034-0.068L112.496,23.927z M112.564,26.186l0.018,0.017v-0.102
			l-0.085,0.034L112.564,26.186z M112.598,21.872l0.018-0.102l-0.018,0.017l-0.067,0.085H112.598z M112.564,23.604l-0.033,0.068
			l0.017,0.017L112.564,23.604z M112.531,26.661v0.068l0.017-0.051l0.051-0.017H112.531z M112.802,21.515l-0.068-0.034l-0.085-0.017
			l0.052,0.051H112.802z M112.666,22.331l0.051,0.017l-0.034,0.034h0.034L112.666,22.331z M112.666,29.073l0.017,0.034l0.085,0.017
			L112.7,29.09L112.666,29.073z M112.683,26.967l0.051,0.136l-0.017,0.034l0.067-0.136l-0.051-0.085l0.034-0.051v-0.051
			L112.683,26.967z M112.784,25.54l0.068-0.085h-0.119l-0.017,0.119L112.784,25.54z M112.751,26.356l0.017-0.034h0.051h0.068h-0.103
			L112.751,26.356z M112.751,29.549l0.067,0.017l-0.034-0.034L112.751,29.549z M112.836,30.483h-0.034l-0.018,0.051L112.836,30.483z
			 M112.989,26.729l-0.085-0.017l0.034,0.034L112.989,26.729z M112.972,27.12v0.034l-0.068-0.034l0.018-0.051l0.067-0.034h-0.017
			V27.12z M113.142,26.05l-0.085-0.017l-0.018,0.102h0.103V26.05z M113.26,21.753l0.052,0.034l0.017-0.017h-0.017L113.26,21.753z
			 M115.213,25.065l0.018-0.136v-0.153l0.051-0.17l-0.034-0.187l-0.034-0.153l0.034-0.187l-0.017-0.136V23.74l0.051-0.17
			l-0.017-0.153l-0.052-0.136l0.068-0.221l-0.017-0.102l0.017-0.17l-0.102-0.34l-0.323-0.051l-0.17-0.034l-0.102,0.017l-0.204-0.017
			l-0.17,0.034l-0.187-0.017l-0.322-0.017l-0.34,0.034l-0.051,0.323l0.033,0.187l0.034,0.17v0.153l-0.067,0.204v0.119l0.017,0.204
			l0.017,0.306l0.034,0.17l-0.051,0.187l-0.017,0.153l0.051,0.187v0.136l-0.034,0.169l0.051,0.374h0.34l0.152,0.017l0.137-0.017
			h0.373l0.187,0.034l0.153-0.034h0.187l0.272-0.017L115.213,25.065z M113.583,26.696l-0.119-0.017l-0.017,0.085l0.051,0.034
			L113.583,26.696z M113.549,21.43l0.017,0.034l-0.051,0.017L113.549,21.43z M113.685,26.203l-0.051,0.119l0.119-0.051
			L113.685,26.203z M113.94,21.278l0.034-0.034h-0.085v0.034H113.94z M114.33,21.498l-0.051-0.034v0.051L114.33,21.498z
			 M114.33,26.627l0.051-0.034l0.018,0.051h-0.018L114.33,26.627z M114.449,21.21l0.085-0.187l-0.085-0.034l-0.085,0.238
			L114.449,21.21z M114.5,21.821l0.102,0.085l0.034-0.051l-0.136-0.068V21.821z M114.585,26.237l-0.018-0.051l-0.033,0.034
			L114.585,26.237z M114.704,21.176l0.085,0.034l-0.034-0.085l-0.103-0.034L114.704,21.176z M114.84,26.559l-0.068-0.017h0.034
			l-0.017,0.034L114.84,26.559z M114.84,21.447l0.067-0.051l0.068-0.136l-0.051,0.068L114.84,21.447z M115.213,26.576l-0.017,0.102
			l-0.085,0.119l0.102-0.085V26.576z M115.197,21.482l-0.051,0.017l0.017,0.051L115.197,21.482z M115.247,21.176l0.068,0.034
			l-0.051-0.017L115.247,21.176z M115.451,21.176l-0.018,0.068l0.034,0.017L115.451,21.176z M115.638,21.736h-0.051l-0.051,0.068
			l0.067-0.017L115.638,21.736z M115.723,22.721h-0.034l-0.034,0.034L115.723,22.721z M115.723,27.307v0.051v0.017h0.034
			L115.723,27.307z M115.774,26.321l0.018-0.068l-0.034-0.034l-0.018,0.051L115.774,26.321z M115.791,29.65l0.033,0.034l0.018-0.017
			L115.791,29.65z M115.893,26.593l-0.051-0.017l-0.034,0.017h0.034H115.893z M116.012,22.008l-0.051,0.017l-0.018-0.034
			l-0.085,0.034h0.103L116.012,22.008z M115.927,24.318l-0.018-0.017l-0.051,0.017H115.927z M115.876,29.99l0.033,0.102l0.018-0.034
			L115.876,29.99z M115.978,22.212l-0.051,0.051l-0.034,0.051l0.068,0.017L115.978,22.212z M115.927,25.337l0.034,0.017l0.033-0.085
			l-0.033-0.034L115.927,25.337z M116.029,27.29l0.017-0.068l-0.118,0.085L116.029,27.29z M115.994,23.163l-0.017-0.017
			l-0.017,0.085l0.067-0.017L115.994,23.163z M116.164,25.659l-0.084-0.051l-0.034-0.017l-0.033,0.034l-0.034,0.051l0.085,0.017
			l0.067,0.017L116.164,25.659z M115.978,28.614l0.102-0.034v-0.051l-0.051-0.017L115.978,28.614z M116.164,22.806l-0.034-0.119
			l-0.033,0.034l-0.068,0.068L116.164,22.806z M116.215,28.954l-0.051-0.169l-0.101-0.017l0.067,0.17L116.215,28.954z
			 M116.164,23.876l-0.084,0.085h0.034L116.164,23.876z M116.113,30.262l0.034,0.051l0.017-0.017L116.113,30.262z M116.215,24.946
			l-0.051,0.034l-0.017-0.034v0.034L116.215,24.946z M116.334,29.599l-0.034-0.085l-0.136-0.017l0.034,0.119L116.334,29.599z
			 M116.3,24.657l-0.102,0.017v0.102l0.051-0.017L116.3,24.657z M116.283,30.568l0.051-0.017l-0.067-0.034l-0.052-0.017
			L116.283,30.568z M116.266,25.32l-0.034-0.017l0.017,0.051l0.068,0.017L116.266,25.32z M116.3,22.382l0.034-0.051h-0.017
			l-0.068-0.017L116.3,22.382z M116.283,24.403l0.017-0.017l-0.051-0.017L116.283,24.403z M116.334,27.476l-0.017-0.051
			l-0.034-0.051l-0.034,0.102H116.334z M116.249,27.714v-0.051l0.034-0.034l-0.034,0.051V27.714z M116.334,26.254l-0.017-0.034
			l-0.051,0.051L116.334,26.254z M116.283,28.156l0.034-0.017l0.017-0.102l-0.067,0.051L116.283,28.156z M116.317,30.975
			l-0.018,0.017l-0.033,0.017l0.033,0.017L116.317,30.975z M116.283,25.489l0.085,0.034h0.119l-0.103-0.102L116.283,25.489z
			 M116.283,26.101l0.051,0.017v-0.051L116.283,26.101z M116.317,28.699l0.033,0.051l0.034-0.017l-0.051-0.034H116.317z
			 M116.385,29.701v0.051l-0.051-0.034L116.385,29.701z M116.419,28.988h-0.068l0.052-0.034L116.419,28.988z M116.52,24.776v-0.034
			h-0.051l-0.034,0.102L116.52,24.776z M116.453,30.346l0.067-0.034h-0.067V30.346z M116.572,23.893l-0.034-0.051l0.017,0.034
			l-0.017-0.017L116.572,23.893z M116.639,24.233l-0.085,0.034l0.051-0.034H116.639z"/>
		<path class="st0" d="M124.52,32.317l-0.136,0.102l-0.137-0.017h-0.391l-0.118-0.017l-0.17,0.051l-0.136-0.051l-0.17,0.034
			l-0.221-0.034h-0.136l-0.357-0.051l-0.136-0.306l-0.085-0.187l-0.034-0.17v-0.119l-0.051-0.153l-0.051-0.153l-0.034-0.187
			l-0.067-0.204l-0.034-0.119v-0.204l-0.085-0.153v-0.153l-0.067-0.17l-0.052-0.136l-0.017-0.17l-0.034-0.136l-0.102-0.17
			l-0.051-0.187l0.017-0.136l-0.068-0.153l-0.017-0.221l-0.067-0.153v-0.119l-0.103-0.17v-0.204l-0.067-0.136l-0.018-0.136
			l-0.067-0.17l-0.034-0.187l-0.034-0.187l-0.051-0.17h-0.136l0.017,0.255v0.17l-0.034,0.169l0.052,0.136l0.017,0.169l-0.034,0.204
			l-0.017,0.323l-0.018,0.153v0.119l0.034,0.187l-0.017,0.153l-0.018,0.187l0.052,0.17l-0.034,0.204l0.051,0.102l-0.051,0.17
			l0.034,0.204l-0.018,0.136l-0.017,0.187l0.034,0.153l0.017,0.17l-0.051,0.187l0.051,0.153v0.17l-0.017,0.153l-0.052,0.153
			l0.034,0.221v0.204l-0.085,0.255l-0.322,0.085l-0.136,0.017h-0.153l-0.204-0.051l-0.152,0.051l-0.221-0.017l-0.187-0.017
			l-0.34-0.051l-0.085-0.255l0.017-0.272l0.018-0.169l-0.034-0.136l0.051-0.187l-0.017-0.153l-0.018-0.17l0.018-0.204l0.033-0.136
			l-0.051-0.204l0.051-0.153l-0.017-0.17l-0.051-0.136l0.034-0.187l-0.034-0.187l0.067-0.153l-0.033-0.187l0.033-0.17v-0.153
			l-0.017-0.204l0.017-0.153l-0.033-0.17l0.033-0.187l-0.067-0.119l0.034-0.17l-0.034-0.187l0.017-0.136V27.46l-0.017-0.153
			l0.067-0.204l-0.051-0.187l0.018-0.119l-0.034-0.204l0.017-0.357l-0.017-0.169l0.067-0.153v-0.17l-0.067-0.153l0.067-0.17
			l-0.033-0.187l0.033-0.187v-0.374l-0.017-0.17l-0.017-0.136v-0.204l0.017-0.17l-0.017-0.17v-0.339l0.033-0.17l-0.067-0.17
			l0.051-0.17v-0.187l-0.017-0.119l0.017-0.204l-0.051-0.153l0.067-0.17l-0.033-0.17l0.033-0.187l-0.017-0.17l-0.034-0.17
			l0.034-0.187l-0.051-0.204v-0.271l0.067-0.272l0.306-0.017l0.222-0.017h0.152l0.102-0.017l0.188,0.017h0.306l0.203,0.034
			l0.136-0.017l0.391,0.068l0.103,0.289l0.034,0.187l0.017,0.187l0.051,0.136l0.018,0.204l0.067,0.289l0.102,0.187l0.052,0.153
			l0.051,0.153v0.169l0.034,0.204l0.017,0.169l0.102,0.187v0.136l0.018,0.17l0.085,0.187l0.017,0.153l0.017,0.153l0.103,0.187
			l0.034,0.153v0.17l0.085,0.136l-0.018,0.187l0.119,0.187l0.034,0.136v0.187l0.051,0.136l0.017,0.221l0.034,0.136l0.102,0.323
			l0.103-0.034l0.017-0.289l-0.017-0.153l-0.018-0.17v-0.204l0.018-0.187l0.033-0.136l-0.033-0.17v-0.339v-0.17l0.051-0.187
			l-0.034-0.153l0.017-0.17v-0.187l0.018-0.17l-0.018-0.221l-0.017-0.136v-0.17l0.034-0.17l-0.018-0.153l-0.051-0.221l0.034-0.17
			l-0.034-0.153l0.034-0.153l-0.034-0.221V21.43l0.068-0.187l-0.018-0.204v-0.289l0.034-0.238l0.289-0.034l0.152,0.017l0.188-0.034
			h0.356l0.17,0.017h0.119l0.152,0.017l0.374,0.085l-0.018,0.306v0.204l-0.017,0.17l0.067,0.187l-0.051,0.136l-0.017,0.153v0.391
			l0.067,0.136l-0.051,0.322l0.018,0.204l-0.018,0.17v0.356l0.034,0.119v0.356l-0.051,0.204l0.067,0.153v0.136l-0.067,0.204v0.306
			l0.017,0.221l0.018,0.136l0.017,0.153l0.017,0.204l-0.067,0.153l0.051,0.187l-0.017,0.187v0.119l-0.018,0.17v0.17l0.051,0.221
			v0.136l-0.017,0.169l-0.017,0.153l-0.018,0.204l0.018,0.153v0.153l-0.034,0.187l0.034,0.204l0.017,0.17l-0.017,0.119l0.017,0.221
			l-0.017,0.153l0.017,0.17v0.136l-0.051,0.17l0.067,0.221l-0.067,0.136l0.017,0.169v0.187l0.051,0.153l-0.067,0.17l0.067,0.204
			l-0.033,0.136l0.033,0.187v0.136l-0.051,0.221l0.034,0.136l-0.017,0.187l0.017,0.136l0.017,0.221l-0.051,0.289L124.52,32.317z
			 M119.629,29.497l-0.051-0.034v0.034H119.629z M119.697,22.67l0.118-0.017l-0.051-0.068h-0.085L119.697,22.67z M119.782,30.483
			l-0.068-0.017v0.102l0.153-0.034l-0.018-0.068l-0.034,0.068L119.782,30.483z M119.748,24.878h0.051l0.017-0.034l-0.084-0.034
			L119.748,24.878z M119.799,25.863h-0.051v0.034L119.799,25.863z M119.934,22.263l-0.085,0.017v0.085l0.018-0.051L119.934,22.263z
			 M119.934,28.377l0.068,0.034l-0.034-0.136h-0.119L119.934,28.377z M119.867,26.305l0.152-0.017l0.068-0.102l-0.119-0.034
			L119.867,26.305z M119.884,21.94l0.034,0.102l0.119-0.017l-0.153-0.136V21.94z M120.104,29.582l-0.187-0.017l0.017,0.119
			l0.153-0.017L120.104,29.582z M119.952,23.588l-0.018,0.068l0.034,0.017l-0.034-0.034L119.952,23.588z M119.952,27.238
			l0.033,0.068l-0.017-0.034L119.952,27.238z M120.003,30.058v-0.051l-0.051,0.017v0.051L120.003,30.058z M120.003,24.878
			l0.017-0.017l-0.017-0.034l-0.018,0.034L120.003,24.878z M119.985,27.68l0.018,0.051l0.017-0.051H119.985z M119.985,31.264
			l0.068,0.051l0.034-0.051l-0.034,0.034L119.985,31.264z M120.019,29.854l0.034,0.051l-0.051-0.034L120.019,29.854z
			 M120.104,25.948l-0.051-0.017l0.017,0.034l0.018,0.034L120.104,25.948z M120.121,29.277l-0.051,0.034l0.103,0.051L120.121,29.277
			z M120.138,21.465v-0.051l-0.051-0.017L120.138,21.465z M120.121,30.635l0.068,0.051l0.017-0.017L120.121,30.635z M120.189,22.229
			l0.017-0.034l-0.033,0.051L120.189,22.229z M120.206,28.36l-0.017,0.017l0.017,0.034l0.034-0.051H120.206z M120.274,24.352
			l-0.068,0.017l0.103,0.034l-0.051-0.034L120.274,24.352z M120.274,24.572l-0.051,0.034l0.051,0.034V24.572z M120.359,22.364
			h-0.085l-0.034-0.017l0.018,0.084L120.359,22.364z M120.308,23.078V23.01l-0.034,0.034L120.308,23.078z M120.325,29.497
			l0.034,0.017h-0.017l-0.052,0.017L120.325,29.497z M120.325,21.855l0.17,0.017l-0.067-0.102l-0.052-0.051L120.325,21.855z
			 M120.325,25.88h0.085l0.018-0.051l-0.103,0.034V25.88z M120.428,24.742l-0.052,0.017l0.018-0.017l0.034,0.051V24.742z
			 M120.478,23.944l-0.051-0.085l-0.034,0.068l0.051,0.051L120.478,23.944z M120.393,24.165l0.067,0.051v-0.017L120.393,24.165z
			 M120.428,26.967l0.033,0.017l-0.051-0.017l0.018-0.034V26.967z M120.546,23.468l-0.102,0.085l0.152-0.017l0.068-0.136
			L120.546,23.468z M120.512,23.163l0.034,0.068l0.034-0.034l-0.102-0.034H120.512z M120.563,26.305l0.017,0.034l-0.068-0.017
			L120.563,26.305z M120.596,26.746l-0.051-0.017l0.034,0.034L120.596,26.746z M120.614,21.498h0.085l-0.051-0.068l-0.034,0.017
			V21.498z M120.665,22.993l-0.017-0.017l-0.034-0.017L120.665,22.993z M120.699,25.761h-0.085l0.051,0.068l0.051-0.017
			L120.699,25.761z M120.681,22.789l0.034-0.051l-0.051-0.084h-0.034l0.018,0.084L120.681,22.789z M120.648,22.144l0.067,0.102
			l0.085-0.017l-0.017-0.068L120.648,22.144z M120.681,24.555l0.034,0.034v0.017l-0.017-0.034L120.681,24.555z M120.733,23.146
			l0.033,0.068l0.018-0.034L120.733,23.146z M120.902,23.451h-0.033l-0.052,0.017l0.034,0.034L120.902,23.451z M120.902,24.233
			l-0.051,0.034l0.018-0.034l-0.018-0.017L120.902,24.233z M120.869,26.05l-0.018,0.034l0.085-0.051L120.869,26.05z M120.92,25.455
			l-0.051,0.051h0.067l0.068,0.034L120.92,25.455z M120.902,23.689l0.052,0.051L120.902,23.689z M120.987,23.061l-0.051-0.017
			l-0.017-0.034L120.987,23.061z M121.005,24.063l-0.018,0.034l0.034-0.034h-0.085H121.005z M120.954,24.505l0.033,0.017
			l-0.017-0.017l-0.017-0.034V24.505z M121.005,22.416v0.068l0.051-0.017l0.051-0.051H121.005z M121.072,22.619h-0.033v0.034
			l0.033,0.051V22.619z M121.124,25.931l0.067,0.034l-0.017-0.017L121.124,25.931z M121.191,25.031l0.017,0.051l-0.067-0.017
			L121.191,25.031z M121.242,24.352l0.018-0.051l-0.052,0.051l-0.051,0.034L121.242,24.352z M121.345,26.424l-0.103,0.051
			l0.034,0.085l0.119-0.034L121.345,26.424z M121.276,23.112l0.051,0.017v-0.051l-0.034-0.051L121.276,23.112z M121.345,24.675
			l0.067,0.051l0.068-0.068l-0.119-0.034L121.345,24.675z M121.633,24.725l0.034-0.017l0.017,0.051L121.633,24.725z M121.683,24.997
			h0.052l-0.034-0.017v-0.034L121.683,24.997z M121.837,26.831l-0.051-0.017l-0.034,0.017l0.068,0.017L121.837,26.831z
			 M121.922,27.154l0.136,0.034v-0.102l-0.051-0.034L121.922,27.154z M122.023,27.918l-0.085-0.034l0.018,0.034l0.017,0.034
			L122.023,27.918z M121.956,27.68l0.067,0.051L121.956,27.68z M122.244,28.665l-0.067,0.034v0.051l0.085-0.034L122.244,28.665z
			 M122.465,27.069l-0.102,0.034h0.119L122.465,27.069z M122.397,27.493l-0.034,0.102h0.068l0.051-0.102H122.397z M122.482,26.984
			h0.034l-0.018-0.068L122.482,26.984z M122.55,27.528h0.034l0.018-0.068l-0.018-0.017L122.55,27.528z M122.737,28.835l-0.068-0.085
			l-0.085-0.017l0.034,0.102H122.737z M122.601,28.037l0.033-0.017L122.601,28.037z M122.703,29.464l-0.068,0.051l0.051-0.017
			L122.703,29.464z M122.685,27.307l0.018-0.068v0.017L122.685,27.307z M122.822,29.141l-0.068-0.119l-0.051,0.136L122.822,29.141z
			 M122.72,28.275l0.018,0.051l0.067-0.017l-0.034-0.034H122.72z M122.839,30.177l-0.017,0.034v-0.034l0.067,0.034L122.839,30.177z
			 M122.924,31.603l0.067-0.017l-0.017,0.017v-0.051L122.924,31.603z M122.958,30.754v0.017v-0.034l0.033,0.017H122.958z
			 M123.059,30.483l-0.034-0.017l-0.051,0.068l0.051,0.017L123.059,30.483z M123.009,27.205v-0.068l-0.018,0.017L123.009,27.205z
			 M123.009,30.958l0.017,0.051l0.018-0.051H123.009z M123.195,27.765l-0.051-0.017l0.034,0.017h-0.034H123.195z M123.28,28.495
			l-0.067,0.017l-0.018,0.085l-0.034,0.051l0.085-0.034L123.28,28.495z M123.195,25.727l0.068-0.017L123.195,25.727z
			 M123.314,27.238l-0.085,0.017l0.085,0.034l-0.034,0.017L123.314,27.238z M123.331,23.366l-0.033-0.017l0.033-0.051l-0.067,0.034
			L123.331,23.366z M123.298,24.59v-0.034l0.051-0.017l-0.085-0.068L123.298,24.59z M123.382,30.839l-0.017-0.034l-0.017,0.051
			l-0.051-0.017H123.382z M123.365,31.467l-0.034,0.085h0.085v-0.051L123.365,31.467z M123.433,26.254l-0.034-0.017l-0.051,0.085
			l0.102,0.017L123.433,26.254z M123.365,29.396l0.017-0.051l0.034,0.051l-0.034-0.034l0.052,0.102l-0.034-0.034L123.365,29.396z
			 M123.433,31.06h-0.068l0.034,0.068L123.433,31.06z M123.382,23.927l0.103-0.017v0.051l-0.085-0.051L123.382,23.927z
			 M123.416,25.948l-0.017,0.051l-0.018-0.068L123.416,25.948z M123.399,25.337l0.051,0.034l0.017,0.034V25.32L123.399,25.337z
			 M123.484,28.512l-0.085,0.017h0.119L123.484,28.512z M123.518,28.173l-0.018-0.017l-0.067-0.017l-0.018,0.085L123.518,28.173z
			 M123.501,31.756h-0.034l-0.017-0.051L123.501,31.756z M123.535,24.182l0.034-0.034v-0.034h-0.085L123.535,24.182z
			 M123.518,30.109l0.051,0.017v-0.034L123.518,30.109z M123.637,23.299l0.052-0.119l-0.137-0.034l0.018,0.119L123.637,23.299z
			 M123.586,27.29v-0.034l0.034,0.034H123.586z M123.586,30.228l0.051,0.085l0.119-0.017l-0.051-0.034L123.586,30.228z
			 M123.671,24.776l0.018-0.017l-0.068,0.102h0.119L123.671,24.776z M123.671,22.67l0.136-0.017l-0.051-0.017v-0.085l-0.085,0.051
			V22.67z M123.705,24.318h-0.034l0.034-0.034V24.318z M123.671,28.597l0.051,0.017l-0.033-0.034L123.671,28.597z M123.739,23.621
			v0.051l0.067-0.034l-0.034-0.068L123.739,23.621z M123.756,31.145l0.068-0.034h-0.068V31.145z M123.942,28.784l-0.136,0.017
			l0.018,0.085l0.085,0.017L123.942,28.784z M123.96,24.165l-0.085-0.051l0.067,0.017L123.96,24.165z M123.926,30.635l-0.051-0.017
			h0.067L123.926,30.635z M123.891,22.263l0.018,0.034L123.891,22.263z M123.942,29.056l0.034,0.034v-0.068l-0.067,0.017
			L123.942,29.056z M123.942,29.531l-0.033,0.034l0.118,0.034L123.942,29.531z"/>
		<path class="st0" d="M130.296,24.012l0.051-0.153l0.017-0.204l-0.051-0.136l0.051-0.153l-0.034-0.204l-0.017-0.136l0.017-0.17
			l0.018-0.306l-0.034-0.187l-0.187-0.017l-0.323-0.017l-0.102,0.017h-0.356l-0.153,0.017l-0.356-0.034h-0.34l-0.085,0.136
			l0.034,0.306l-0.051,0.187v0.136l0.034,0.17v0.221l-0.018,0.17l0.034,0.136l-0.051,0.153v0.374l-0.018,0.17l0.052,0.17
			l-0.018,0.119l-0.017,0.17l0.017,0.17l0.018,0.204l-0.018,0.136v0.187l0.018,0.136l-0.034,0.187l0.034,0.153l0.017,0.17v0.391
			l-0.068,0.119l0.068,0.204l-0.017,0.187l0.017,0.136l-0.034,0.17l-0.017,0.153l0.034,0.17l-0.052,0.17l0.068,0.153l-0.034,0.187
			l-0.034,0.153l0.018,0.221l0.017,0.323v0.187l0.034,0.17l-0.017,0.119l-0.052,0.221l0.068,0.187v0.153l-0.017,0.357l0.067,0.068
			l0.374,0.068h0.322l0.204-0.017l0.187,0.017l0.136-0.051l0.17,0.017l0.306,0.017l0.119-0.085l0.051-0.356l-0.051-0.187
			l0.034-0.119l-0.051-0.187l0.017-0.187l-0.017-0.204V29.09v-0.221l0.033-0.289l-0.136-0.136l-0.322,0.017h-0.188l-0.322-0.017
			l-0.051-0.34l-0.051-0.187l0.051-0.119l-0.034-0.17l0.034-0.204l-0.017-0.153l0.017-0.17l-0.068-0.119l0.068-0.34l0.51-0.068
			l0.203,0.034l0.153-0.034l0.152,0.034h0.153l0.187-0.034l0.17-0.017h0.34l0.187,0.017l0.136-0.017l0.221,0.034h0.136l0.374,0.017
			v0.374l0.017,0.187l-0.033,0.136l0.051,0.169l-0.018,0.221l-0.033,0.119v0.221l0.033,0.119l-0.017,0.221l0.034,0.153l-0.018,0.17
			l0.034,0.187v0.136l-0.034,0.169v0.357v0.187l-0.017,0.204v0.323l0.034,0.136l-0.018,0.187l-0.033,0.187l0.067,0.204l-0.085,0.323
			l-0.221,0.323l-0.288,0.221l-0.068,0.136l-0.119,0.085l-0.424,0.323l-0.323,0.034l-0.136,0.017l-0.153-0.051h-0.203l-0.391,0.034
			l-0.17-0.034l-0.119,0.017l-0.152-0.017l-0.255,0.051l-0.153-0.017l-0.118-0.034l-0.222,0.017l-0.136,0.034l-0.152-0.017
			l-0.238,0.017l-0.187-0.017l-0.34-0.034l-0.203-0.221l-0.188-0.102l-0.067-0.119l-0.153-0.102l-0.152-0.119l-0.188-0.272
			l-0.067-0.187l-0.034-0.323l0.034-0.204l-0.051-0.169l0.051-0.17l-0.018-0.204l-0.033-0.169l0.033-0.153l-0.051-0.153l0.018-0.153
			l0.033-0.187l-0.017-0.204l-0.034-0.136v-0.169l0.034-0.17l0.034-0.204v-0.17l-0.068-0.153v-0.169l0.018-0.153l0.017-0.221
			l0.017-0.169l-0.051-0.17l0.018-0.187l0.033-0.153l-0.051-0.136v-0.204l0.018-0.153l0.017-0.17l-0.017-0.204l-0.034-0.169
			l0.051-0.153l-0.034-0.136l0.018-0.221v-0.17v-0.153l0.017-0.187l0.017-0.119l-0.017-0.187l-0.034-0.187l-0.017-0.17l0.051-0.119
			l-0.034-0.17l-0.017-0.17l0.017-0.187l0.051-0.187l-0.067-0.153l0.034-0.153l-0.034-0.204l0.034-0.169l-0.018-0.17l-0.017-0.136
			l0.017-0.204v-0.187l0.034-0.306l0.068-0.221l0.033-0.136l0.272-0.255l0.17-0.119l0.051-0.085l0.17-0.119l0.221-0.204l0.102-0.085
			l0.306-0.017l0.221-0.017h0.187l0.17,0.051l0.119-0.034l0.204,0.017l0.221-0.017l0.136,0.017h0.187l0.188,0.017l0.169-0.051h0.188
			l0.136,0.034l0.187,0.017l0.153-0.051h0.322l0.425,0.034l0.221,0.221l0.152,0.17l0.085,0.102l0.17,0.119l0.085,0.085l0.255,0.289
			l0.102,0.119v0.357l0.034,0.169l-0.051,0.119l-0.017,0.187l0.051,0.187l-0.051,0.153l0.051,0.17l-0.034,0.17l-0.017,0.221v0.153
			l0.033,0.153l-0.017,0.204l0.034,0.153v0.357l-0.153,0.102l-0.288,0.017l-0.221,0.017l-0.136-0.017l-0.17-0.017l-0.238,0.017
			h-0.102l-0.204-0.017l-0.356-0.051L130.296,24.012z M127.137,23.757l0.051,0.017l-0.051-0.034V23.757z M127.204,23.316
			l0.034-0.017l0.068-0.034l-0.085-0.034L127.204,23.316z M127.289,24.063l-0.051,0.051l0.034-0.068L127.289,24.063z
			 M127.357,26.644l-0.102,0.034l0.085,0.102L127.357,26.644z M127.289,27.137l0.103,0.017l0.017-0.085l-0.034-0.034L127.289,27.137
			z M127.476,29.905l-0.188,0.068l0.137,0.034l0.136,0.017L127.476,29.905z M127.391,28.122h0.051l-0.068-0.068l-0.067,0.017
			L127.391,28.122z M127.306,31.094l0.051-0.017h-0.051V31.094z M127.323,27.85l0.018-0.017l0.033,0.034L127.323,27.85z
			 M127.442,30.143l-0.102,0.085l0.051,0.051L127.442,30.143z M127.442,22.144l0.017-0.085l-0.033-0.034l-0.068,0.085
			L127.442,22.144z M127.408,26.22l0.018,0.068l0.033-0.017l-0.067-0.034L127.408,26.22z M127.459,27.613l-0.067,0.017l0.034,0.017
			l0.033-0.017V27.613z M127.426,28.58l0.033,0.017l0.119-0.034l-0.034-0.051L127.426,28.58z M127.476,21.889l0.033-0.068
			l-0.067,0.051L127.476,21.889z M127.527,24.318h-0.068l0.018-0.034l0.017,0.034H127.527z M127.578,29.311l-0.017-0.017
			l-0.052-0.017l-0.033,0.017L127.578,29.311z M127.493,30.72l-0.017,0.136l0.085-0.017l-0.034-0.068L127.493,30.72z
			 M127.578,31.264h-0.051h-0.018l0.119,0.051L127.578,31.264z M127.527,27.188l0.085,0.034v-0.034H127.527z M127.578,23.672v0.051
			l0.119-0.034v-0.034l-0.085,0.034l-0.068-0.017l0.018,0.034L127.578,23.672z M127.663,25.133v-0.102h-0.102v0.051L127.663,25.133z
			 M127.646,28.767l-0.068-0.034v0.068l0.119-0.051L127.646,28.767z M127.595,23.876l0.085,0.034h-0.051L127.595,23.876z
			 M127.646,26.135l0.051,0.051l-0.018-0.068v0.051L127.646,26.135z M127.731,21.482l0.085,0.051l0.033-0.068l-0.17-0.017
			L127.731,21.482z M127.782,21.855l-0.051-0.051l-0.052-0.034l0.034,0.068L127.782,21.855z M127.782,30.601l-0.051,0.034
			l0.067,0.017h0.034L127.782,30.601z M127.764,27.137v-0.068l0.034,0.034L127.764,27.137z M127.816,29.073v0.034l-0.052,0.017
			L127.816,29.073z M127.849,30.788l-0.017,0.034l-0.068,0.034h0.052L127.849,30.788z M127.816,31.128l-0.034,0.051h0.051
			L127.816,31.128z M127.9,25.54l-0.033-0.068l-0.018,0.034l0.119,0.068L127.9,25.54z M127.934,22.059l0.018,0.051l-0.052-0.017
			L127.934,22.059z M128.122,31.043l-0.085-0.034l-0.018,0.136L128.122,31.043z M128.122,30.568l0.051,0.017l-0.018,0.017
			L128.122,30.568z M128.138,21.634l0.017-0.034l-0.017,0.051V21.634z M128.325,31.213l0.051-0.017l-0.051-0.017l-0.017,0.034
			H128.325z M128.376,31.688l-0.017,0.017v0.051h0.051L128.376,31.688z M128.428,31.535v0.034l0.067-0.051L128.428,31.535z
			 M128.631,31.671l0.051-0.034l-0.102-0.017l-0.051,0.068L128.631,31.671z M128.648,31.043h-0.034l-0.018,0.051L128.648,31.043z
			 M128.851,31.28v0.017l-0.051-0.068l-0.034,0.034L128.851,31.28z M129.106,31.383l0.018-0.017L129.106,31.383z M129.378,31.671
			l0.018-0.068v0.051L129.378,31.671z M129.633,20.972l-0.118,0.017l-0.068,0.102l0.017,0.119l0.068,0.034v-0.102L129.633,20.972z
			 M129.701,31.586l0.017,0.051V31.57l0.018,0.017H129.701z M129.837,21.227l-0.034-0.051L129.837,21.227z M129.956,21.414
			l-0.051,0.068h0.017l0.034-0.034V21.414z M130.126,21.261l-0.034-0.034l0.017,0.017l-0.034,0.051L130.126,21.261z M130.244,31.637
			l0.052-0.034l0.033,0.017l-0.102-0.017L130.244,31.637z M130.346,31.365l0.051-0.017l-0.018-0.034v0.034L130.346,31.365z
			 M130.516,27.392l-0.052-0.051l0.068,0.017L130.516,27.392z M130.499,27.663l0.051,0.017l0.052-0.051L130.499,27.663z
			 M130.652,21.838l0.067-0.068l-0.017-0.051l-0.017,0.017L130.652,21.838z M130.737,27.952h-0.034l-0.051-0.051l0.051,0.085
			L130.737,27.952z M130.72,31.162l0.018,0.017l0.033-0.051l-0.102-0.034L130.72,31.162z M130.804,27.46h-0.017l0.017-0.085V27.46z
			 M130.788,31.552l0.034-0.017l0.067-0.051l-0.034-0.017L130.788,31.552z M130.958,27.918l-0.018,0.034l-0.017-0.051v0.051
			L130.958,27.918z M131.009,22.059l0.051-0.085l-0.051,0.034l-0.068,0.068L131.009,22.059z M131.009,30.075l0.034-0.051
			l-0.018-0.051l-0.033,0.085L131.009,30.075z M131.025,31.077h-0.017v0.102l0.068-0.017L131.025,31.077z M131.077,22.314h0.017
			l-0.068-0.068L131.077,22.314z M131.094,29.226l-0.017-0.051l-0.052,0.051H131.094z M131.144,22.382l-0.067-0.051L131.144,22.382z
			 M131.077,28.614l0.033-0.034L131.077,28.614z M131.331,28.92l-0.033-0.119l-0.085,0.017l-0.068,0.102H131.331z M131.213,22.738
			l0.017-0.017l-0.051-0.017l0.017,0.068L131.213,22.738z M131.263,30.279l-0.051-0.034l0.033-0.017L131.263,30.279z
			 M131.383,29.497l-0.068,0.017l0.017,0.085l0.119-0.017L131.383,29.497z M131.365,27.85l-0.017,0.017h0.067L131.365,27.85z
			 M131.383,28.071l0.033,0.034l0.034-0.017l-0.102-0.034L131.383,28.071z M131.416,22.314l0.034,0.034l-0.067,0.034L131.416,22.314
			z M131.383,30.568l0.017-0.034v0.017l-0.017,0.034V30.568z M131.468,27.408l-0.068,0.034l0.034-0.017l0.017,0.034L131.468,27.408z
			 M131.433,28.377l0.017,0.034h0.153l-0.052-0.051L131.433,28.377z M131.484,28.733l-0.017-0.017l0.033,0.034l0.018-0.051
			L131.484,28.733z M131.468,28.937v-0.034l0.067,0.051L131.468,28.937z M131.824,22.772l0.051,0.017L131.824,22.772z"/>
		<path class="st0" d="M139.094,30.601l0.034,0.136l0.017,0.255l0.052,0.17v0.153l-0.068,0.17l0.068,0.17v0.136l-0.018,0.221v0.306
			l-0.152,0.119l-0.357-0.034l-0.152,0.017h-0.153l-0.339-0.034l-0.17,0.051h-0.153l-0.136-0.034l-0.237,0.017l-0.17-0.034
			l-0.17,0.051l-0.119-0.017l-0.34,0.017h-0.187l-0.136-0.034l-0.204,0.017l-0.187-0.034h-0.17l-0.136,0.017l-0.17,0.017h-0.136
			l-0.221,0.017l-0.119-0.034h-0.391l-0.17-0.068l-0.017-0.119l0.033-0.356l-0.067-0.221l0.067-0.136v-0.17l-0.051-0.153
			l0.018-0.204l-0.018-0.153v-0.169l0.051-0.136l-0.033-0.17l-0.018-0.204l0.018-0.136l-0.034-0.221l0.051-0.17l-0.051-0.153
			l0.017-0.153l0.051-0.17l-0.051-0.204l-0.017-0.119l0.034-0.221l-0.018-0.119v-0.374l0.018-0.153l-0.034-0.169v-0.17l0.051-0.17
			l-0.051-0.187l0.017-0.119l-0.017-0.204l0.051-0.153l0.017-0.153v-0.374l-0.051-0.136l0.018-0.221l0.017-0.119l-0.034-0.204
			l0.051-0.17l-0.017-0.187l0.017-0.17l-0.017-0.119l-0.051-0.17v-0.187l0.067-0.187l-0.051-0.136l0.051-0.221v-0.17l-0.067-0.136
			l0.051-0.17l-0.051-0.153l0.067-0.187l-0.033-0.187l0.017-0.187l0.017-0.136l-0.017-0.187l-0.017-0.169v-0.187l-0.034-0.17
			l0.051-0.136v-0.187l-0.034-0.136l0.018-0.204l0.017-0.187l-0.017-0.136l0.033-0.357l-0.017-0.085l0.187-0.102l0.306,0.051
			l0.136-0.017l0.222-0.017l0.152-0.017l0.187,0.051h0.153l0.119-0.017l0.237-0.017l0.136-0.017l0.153,0.051l0.17-0.017l0.221-0.017
			h0.322l0.17-0.017l0.153,0.034l0.169,0.017l0.17-0.034l0.119-0.017l0.238,0.051l0.169-0.051l0.34,0.034l0.17-0.034l0.34,0.034
			l0.119,0.085l-0.034,0.374l0.017,0.204l0.034,0.119l-0.034,0.221v0.17l0.052,0.17v0.289l-0.119,0.17l-0.085,0.068l-0.374-0.017
			l-0.152-0.017h-0.323l-0.255-0.017l-0.169,0.034h-0.153l-0.17-0.034h-0.136l-0.221,0.034h-0.153l-0.288-0.017l-0.374,0.017
			l-0.051,0.102l-0.051,0.357l-0.018,0.221l0.018,0.136v0.204l0.034,0.187l-0.034,0.136l-0.018,0.187l0.018,0.204l0.017,0.119
			l0.018,0.204v0.356l0.017,0.153l-0.034,0.221l0.018,0.136l-0.034,0.289l0.085,0.153l0.34-0.034l0.169,0.034l0.34-0.051
			l0.153,0.051l0.237-0.034l0.153-0.017l0.136,0.051l0.204-0.051l0.152,0.051l0.391-0.051l0.085,0.153l0.051,0.356l-0.017,0.17v0.17
			v0.17l-0.034,0.17l-0.017,0.119v0.34l0.017,0.153l-0.17,0.085l-0.34-0.034l-0.17,0.051l-0.187-0.051h-0.17l-0.203,0.051
			l-0.188-0.017l-0.17,0.017l-0.152-0.051l-0.153,0.017l-0.391,0.017l-0.118,0.084l-0.034,0.425l0.034,0.119l-0.034,0.187
			l0.017,0.153l0.034,0.153l-0.051,0.204v0.306l-0.018,0.187l0.052,0.119l-0.052,0.169l0.018,0.204l0.017,0.153l0.018,0.306
			l0.017,0.17l0.17,0.034l0.306-0.017l0.152-0.017l0.17,0.034h0.188l0.118-0.017l0.204,0.034h0.17l0.119,0.017l0.187-0.034
			l0.204,0.017l0.118,0.017l0.153-0.034l0.187-0.017l0.306,0.017L139.094,30.601z M134.678,22.534l-0.018,0.034l0.085-0.017
			L134.678,22.534z M134.78,27.323l-0.051,0.034l0.067,0.017L134.78,27.323z M134.763,22.636l0.033-0.051v-0.034L134.763,22.636z
			 M134.814,27.578l-0.018,0.051l0.034-0.051H134.814z M135.017,24.929l0.018-0.085h-0.034l-0.068,0.068L135.017,24.929z
			 M134.984,24.59l0.067-0.034v-0.034l-0.085,0.017L134.984,24.59z M134.984,30.092l0.051-0.068h-0.051l-0.018,0.051L134.984,30.092
			z M135.069,30.737l-0.103,0.017l0.018,0.017h0.033L135.069,30.737z M135.069,23.248l0.102-0.051l-0.017-0.119l-0.068-0.034
			l-0.102,0.068L135.069,23.248z M135.069,25.048l-0.068-0.034l0.051,0.051l0.034,0.051l0.034-0.034L135.069,25.048z
			 M135.171,26.559l-0.17,0.017l0.051,0.068l0.119,0.034V26.559z M135.017,26.406l0.137-0.051l-0.034-0.153l-0.085,0.085
			L135.017,26.406z M135.137,25.778l-0.085,0.034v-0.034H135.137z M135.102,30.483l-0.017-0.034h-0.034h0.018L135.102,30.483z
			 M135.154,25.489l-0.052-0.051l-0.017,0.068L135.154,25.489z M135.102,24.08l0.034,0.017l0.034-0.017H135.102z M135.205,22.619
			l0.033-0.068l-0.033-0.017h-0.034L135.205,22.619z M135.221,26.101v-0.068h-0.017l-0.034,0.017L135.221,26.101z M135.272,28.547
			h-0.102l0.067,0.034l0.137,0.068l0.067-0.017l-0.034-0.051L135.272,28.547z M135.256,29.396l-0.085-0.034l0.051,0.102l0.034-0.051
			V29.396z M135.238,22.144l-0.051-0.085v0.017l0.051,0.051V22.144z M135.187,23.366l0.068-0.017l0.017-0.119L135.187,23.366z
			 M135.221,26.95l-0.017,0.017l-0.018,0.051L135.221,26.95z M135.187,30.686l0.051,0.017l0.018-0.017H135.187z M135.205,31.298
			v-0.034l0.051,0.017L135.205,31.298z M135.306,23.842h0.017v0.034l-0.051,0.051l0.034,0.068V23.842z M135.357,21.261l0.034-0.017
			l-0.068-0.051L135.357,21.261z M135.375,24.623l-0.034,0.017l0.051-0.051l-0.051,0.017L135.375,24.623z M135.391,26.152h-0.034
			l-0.017,0.034L135.391,26.152z M135.357,27.443l-0.017,0.034l0.102,0.051l0.018-0.068L135.357,27.443z M135.442,31.145h-0.051
			l0.085,0.034L135.442,31.145z M135.442,25.948l-0.034,0.051l0.085,0.017v-0.085L135.442,25.948z M135.527,21.77l-0.102-0.017
			l0.034,0.034L135.527,21.77z M135.527,31.298l-0.085-0.017v-0.017L135.527,31.298z M135.493,23.859l-0.017,0.068l0.051,0.017
			l0.051-0.017L135.493,23.859z M135.578,30.737l0.051,0.017l-0.017-0.017h0.034H135.578z M135.646,22.517v-0.051l-0.034,0.034
			L135.646,22.517z M135.697,26.288l-0.085,0.034L135.697,26.288z M135.663,21.074l0.034,0.017l-0.068,0.034L135.663,21.074z
			 M135.697,21.397l-0.051,0.051h0.085L135.697,21.397z M135.765,21.668l-0.034,0.085h0.067l0.085-0.051h-0.051L135.765,21.668z
			 M135.748,31.162h0.119l0.051-0.034h0.017l-0.017-0.051l-0.051-0.034L135.748,31.162z M135.833,21.142h0.051l-0.033,0.051
			L135.833,21.142z M135.969,31.96v-0.034l0.034,0.051L135.969,31.96z M136.122,26.593l-0.051,0.017l-0.018,0.051l0.018-0.017
			L136.122,26.593z M136.189,31.026l-0.017,0.051l0.034-0.017l0.017-0.017L136.189,31.026z M136.393,31.722h0.102v-0.034
			L136.393,31.722z M136.478,31.264l-0.034,0.034l0.103,0.068l0.051-0.034h-0.051L136.478,31.264z M136.614,21.532l0.018-0.034
			l-0.034-0.051L136.614,21.532z M136.699,26.848l-0.017-0.017h0.051L136.699,26.848z M136.767,20.955l-0.034-0.017l0.034,0.034
			l0.017,0.034L136.767,20.955z M137.005,31.247l-0.204,0.051l0.103,0.187l0.051-0.051l0.102-0.102L137.005,31.247z M136.937,21.295
			l-0.068,0.051v-0.034L136.937,21.295z M137.225,31.383l0.085-0.034h-0.034L137.225,31.383z M137.905,21.329l-0.034-0.068
			L137.905,21.329z M137.922,31.654l0.018,0.034l0.067-0.051l-0.051-0.017L137.922,31.654z"/>
		<path class="st0" d="M145.922,26.678l0.271,0.238l0.085,0.136l0.119,0.136l0.255,0.221l0.085,0.136l0.034,0.356v0.17l-0.068,0.204
			l0.034,0.119l-0.034,0.221v0.17l0.068,0.153v0.169l-0.068,0.119v0.204l0.017,0.17l-0.017,0.187l0.034,0.119l-0.034,0.221v0.153
			l0.034,0.187l-0.034,0.136l0.068,0.204l-0.052,0.119l0.018,0.187l0.017,0.136l-0.017,0.17l0.034,0.221l-0.068,0.119l0.034,0.221
			l0.034,0.306l-0.17,0.084l-0.34,0.068l-0.102-0.034h-0.306l-0.222-0.017l-0.118,0.051l-0.221-0.017h-0.357l-0.067-0.136v-0.408
			v-0.136l-0.034-0.17l0.018-0.204v-0.119l-0.034-0.17l0.067-0.187l-0.067-0.187l0.034-0.153l0.033-0.187l-0.033-0.153v-0.187
			l0.017-0.119l0.017-0.187v-0.357v-0.136l-0.017-0.221v-0.17l-0.017-0.119l0.017-0.169l-0.017-0.17v-0.34l-0.052-0.221l0.018-0.17
			l-0.188-0.051l-0.187-0.017l-0.322,0.051l-0.188-0.017l-0.152-0.034h-0.17l-0.153,0.034l-0.136-0.017l-0.306,0.017l-0.152,0.119
			l0.034,0.323l-0.052,0.153l0.068,0.17l-0.051,0.187l-0.018,0.17l0.052,0.221l-0.068,0.17l0.068,0.136v0.153v0.204l-0.052,0.204
			l0.034,0.136l-0.017,0.187l0.034,0.17l-0.034,0.136l-0.034,0.204l0.068,0.204l-0.068,0.119l0.051,0.357l-0.017,0.17l0.034,0.136
			v0.187l-0.052,0.187l-0.033,0.323l-0.374,0.051l-0.119,0.034l-0.17,0.017l-0.152-0.034h-0.323l-0.169,0.017l-0.374-0.017
			l-0.068-0.153l-0.033-0.34v-0.153l0.017-0.17v-0.374v-0.356l-0.051-0.136l0.034-0.204l-0.018-0.17v-0.169l0.051-0.17l-0.051-0.17
			l0.034-0.153v-0.17l-0.051-0.187l0.067-0.187v-0.187l-0.017-0.153l0.017-0.322l-0.067-0.187l0.051-0.136l-0.034-0.204l0.051-0.169
			l-0.067-0.153l0.051-0.169l-0.034-0.187l0.018-0.153v-0.221l0.033-0.119l-0.051-0.187l0.051-0.34l-0.067-0.17l0.067-0.204
			l-0.067-0.153l0.034-0.136l-0.018-0.204l0.051-0.136l-0.051-0.17l-0.017-0.187v-0.374l0.034-0.153l0.017-0.136l-0.051-0.187
			l0.017-0.153l0.051-0.17v-0.34l-0.051-0.204l-0.017-0.187l0.034-0.119l0.033-0.204l-0.067-0.136l0.034-0.221l0.017-0.153
			l-0.017-0.136l0.033-0.187v-0.17l-0.067-0.187v-0.153l0.051-0.17v-0.187l-0.034-0.306l0.103-0.17l0.067-0.017l0.391-0.017
			l0.136,0.051l0.188-0.017h0.152l0.17-0.017h0.204l0.085-0.017l0.221,0.034l0.187,0.017h0.102l0.17-0.051h0.221l0.136,0.051
			l0.221-0.051l0.137,0.034l0.17-0.017l0.136-0.017l0.187,0.017l0.204,0.034l0.118-0.017h0.17l0.17,0.017l0.187-0.051l0.51,0.102
			l0.289,0.272l0.187,0.119l0.068,0.136l0.118,0.153l0.222,0.221l0.102,0.119l0.034,0.34l-0.068,0.17l0.017,0.204l0.018,0.136v0.187
			l0.034,0.136v0.17l-0.052,0.187l0.018,0.153l-0.034,0.221l0.034,0.17v0.153l0.017,0.204v0.306l0.018,0.17l-0.018,0.187
			l-0.017,0.136l0.034,0.187l-0.052,0.153l0.034,0.187l-0.067,0.323l-0.018,0.153l-0.203,0.187l-0.153,0.153l-0.067,0.102
			l-0.103,0.085l-0.221,0.238V26.678z M141.523,27.375l-0.085-0.051l0.034,0.034l0.051,0.034V27.375z M141.472,22.585l0.034,0.034
			l0.051-0.051L141.472,22.585z M141.642,27.986l0.033,0.017l-0.017-0.085l-0.085,0.017L141.642,27.986z M141.642,29.514
			l-0.068-0.017l0.051,0.034L141.642,29.514z M141.642,30.431l-0.052-0.051l0.018,0.017L141.642,30.431z M141.625,29.328
			l0.068-0.068l-0.018-0.017l-0.067,0.051L141.625,29.328z M141.727,24.572l-0.085-0.017l0.067,0.034L141.727,24.572z
			 M141.642,31.111l0.067,0.017l-0.051,0.034L141.642,31.111z M141.659,23.74l0.051-0.051h-0.017L141.659,23.74z M141.829,26.661
			l-0.051-0.136l-0.119-0.017l0.051,0.068L141.829,26.661z M141.761,29.99l-0.017,0.034l-0.068,0.017h0.052L141.761,29.99z
			 M141.761,24.046l-0.033,0.034l0.102,0.017l-0.068-0.034V24.046z M141.727,27.205l0.033-0.017l-0.017-0.017L141.727,27.205z
			 M141.761,24.929l0.052,0.051l0.017-0.085h-0.068V24.929z M141.778,22.738l0.034,0.034l0.067-0.153h-0.102V22.738z
			 M141.829,25.744l-0.051-0.051v0.187l0.067,0.068L141.829,25.744z M141.829,30.72l-0.051-0.017l0.034-0.017L141.829,30.72z
			 M141.981,22.093l-0.017-0.204l-0.085,0.034l-0.085,0.17H141.981z M141.863,28.394l-0.068-0.051l0.034,0.017L141.863,28.394z
			 M141.93,22.484l-0.017-0.051l-0.085,0.085l0.085,0.051L141.93,22.484z M141.829,27.68l0.034,0.034l0.017,0.051l0.034-0.085
			H141.829z M141.88,25.15l-0.017,0.034l-0.018,0.051l0.068-0.051L141.88,25.15z M141.863,26.916l0.034,0.051l0.033-0.017
			L141.863,26.916z M142.015,29.769l-0.152,0.068l0.102,0.085l0.119,0.017L142.015,29.769z M141.965,23.604l-0.051,0.017v0.034
			L141.965,23.604z M141.981,27.85h-0.017l-0.034,0.034L141.981,27.85z M141.93,30.143l0.051,0.034l0.034-0.017L141.93,30.143z
			 M141.981,23.333l0.153,0.017l-0.034-0.136l-0.152-0.034L141.981,23.333z M141.981,30.415v-0.034l-0.017,0.051l0.085-0.017
			H141.981z M141.981,30.703v0.034l0.052,0.017L141.981,30.703z M142.05,21.685v-0.034l0.034-0.034h-0.034V21.685z M142.084,26.712
			v0.051l-0.034-0.034v0.017L142.084,26.712z M142.1,29.277l-0.051,0.017l0.051-0.034V29.277z M142.1,23.571v0.051l-0.017,0.034
			l0.034-0.051L142.1,23.571z M142.151,27.29l-0.033-0.034l-0.018,0.017L142.151,27.29z M142.185,27.901l-0.085-0.034
			L142.185,27.901z M142.1,28.275l0.051,0.051l0.018-0.051H142.1z M142.151,31.535l-0.051,0.017l0.051,0.017V31.535z
			 M142.304,26.559l-0.034,0.017h-0.051l0.034,0.017L142.304,26.559z M142.254,25.235h0.017l0.018-0.017l-0.034-0.051V25.235z
			 M142.339,21.906l0.051-0.034h-0.051h-0.051l0.067,0.085L142.339,21.906z M142.389,30.55l-0.102-0.051l0.017,0.085l0.136,0.051
			L142.389,30.55z M142.321,27.018l0.051-0.102l-0.067,0.017l0.017,0.034V27.018z M142.372,27.273l0.018-0.034l0.017-0.034
			l-0.102-0.017L142.372,27.273z M142.355,21.244l-0.034,0.034l0.051-0.051l-0.017-0.068V21.244z M142.339,22.042l0.033,0.085
			l-0.017-0.051h0.034L142.339,22.042z M142.372,26.288v0.017l-0.033-0.034L142.372,26.288z M142.746,27.103l-0.152,0.017
			l-0.034,0.085l0.136-0.034L142.746,27.103z M142.576,21.227l0.103-0.051l-0.068-0.017L142.576,21.227z M142.644,27.29v0.102
			l0.034,0.017l0.017-0.085L142.644,27.29z M142.678,21.668v0.034l0.017,0.051v-0.068L142.678,21.668z M144.886,25.184V24.98
			l-0.067-0.187V24.64l0.017-0.153l-0.017-0.238v-0.136v-0.153l0.051-0.221l0.017-0.187v-0.153l-0.017-0.17v-0.153l-0.017-0.204
			l0.033-0.153l-0.102-0.374h-0.356l-0.103,0.017l-0.17-0.034l-0.169,0.017h-0.17l-0.204,0.017l-0.153-0.051h-0.221l-0.356,0.051
			l-0.017,0.408l0.017,0.153v0.221l0.018,0.17l-0.068,0.136v0.17l0.034,0.187l-0.018,0.374l0.034,0.17l0.018,0.153l-0.068,0.136
			v0.187l0.017,0.136l0.018,0.17l0.034,0.153l0.017,0.323l0.322,0.102h0.357l0.187-0.051h0.322l0.17,0.017l0.204,0.034l0.34-0.068
			l0.067-0.306V25.184z M143.12,26.712l-0.068-0.017l-0.051-0.051l0.017,0.051L143.12,26.712z M143.052,27.171l0.034-0.034
			l0.034,0.085v-0.051H143.052z M143.086,21.329l0.034,0.017v0.034L143.086,21.329z M143.29,26.288l-0.018-0.051l-0.102,0.017
			l0.034,0.051L143.29,26.288z M143.272,26.491v-0.034l-0.051,0.068h0.017L143.272,26.491z M143.476,26.95l0.067,0.034l-0.051,0.034
			l0.051-0.068H143.476z M143.612,21.668l-0.017-0.102l0.017,0.017v0.034V21.668z M143.833,26.424l-0.136,0.017l0.067,0.102
			L143.833,26.424z M144.325,21.685l0.034,0.034L144.325,21.685l-0.051,0.034L144.325,21.685z M144.495,21.482l0.018-0.102
			l-0.103,0.085v0.068l0.052,0.017L144.495,21.482z M144.529,26.78l-0.034-0.034l-0.051,0.085h0.034L144.529,26.78z M144.767,21.091
			l0.085-0.034l-0.052-0.017h-0.017L144.767,21.091z M144.784,26.814l0.051-0.017L144.784,26.814z M144.886,21.872v-0.034
			l0.034,0.017l-0.017-0.051L144.886,21.872z M145.073,21.719l-0.034-0.017l0.034,0.119l0.102-0.017l-0.068-0.102L145.073,21.719z
			 M145.26,26.882l0.034-0.017L145.26,26.882z M145.361,25.404l-0.017,0.017h-0.051v0.051L145.361,25.404z M145.379,21.515
			l0.067,0.051L145.379,21.515z M145.464,24.403l-0.034,0.017l0.067,0.068l-0.017-0.051L145.464,24.403z M145.514,23.163
			l-0.034,0.068h0.085l0.051-0.051L145.514,23.163z M145.497,27.188l0.068-0.068l0.067-0.051l-0.102,0.034L145.497,27.188z
			 M145.616,29.531l-0.017-0.034l-0.085,0.017l0.017,0.068l0.034-0.051H145.616z M145.531,25.404v0.017l0.034,0.017L145.531,25.404z
			 M145.667,31.111l-0.118-0.051l0.017,0.136L145.667,31.111z M145.752,28.767l0.051-0.017l-0.051,0.034v0.068l-0.17,0.136
			l0.136,0.085l0.085-0.102l0.103-0.136L145.752,28.767z M145.684,22.772l-0.085-0.034l0.017-0.017L145.684,22.772z M145.599,30.483
			l0.017,0.034l0.017-0.051L145.599,30.483z M145.65,22.161h0.034l-0.018-0.068v0.051L145.65,22.161z M145.718,31.162l-0.051,0.034
			l0.051,0.034V31.162z M145.735,24.623v-0.017l-0.051,0.017H145.735z M145.871,23.333l-0.17,0.051l0.034,0.153l0.17-0.034
			L145.871,23.333z M145.786,24.352l-0.034-0.034v0.051L145.786,24.352z M145.871,23.214l0.067-0.034l-0.102-0.017h-0.051
			L145.871,23.214z M145.82,27.443l0.034,0.068l-0.052,0.017l0.068-0.034L145.82,27.443z M145.837,29.022l0.018,0.017l-0.034,0.017
			l0.067,0.034L145.837,29.022z M145.854,30.771l0.017,0.017l-0.034-0.034L145.854,30.771z M145.887,25.422l-0.033,0.085h0.051
			L145.887,25.422z M146.041,28.309l-0.051-0.034l-0.034,0.068L146.041,28.309z M146.023,25.048l0.119-0.017l-0.017-0.119
			l-0.136,0.051L146.023,25.048z M146.211,24.182l-0.018-0.068l-0.033-0.051l-0.018,0.051L146.211,24.182z"/>
		<path class="st0" d="M152.615,24.046l-0.051-0.323l-0.034-0.187l0.034-0.153l0.017-0.204l-0.051-0.153V22.84v-0.323l-0.051-0.102
			l-0.374-0.068l-0.136,0.034h-0.221l-0.153-0.017h-0.152l-0.221-0.017l-0.136,0.034l-0.391,0.068l-0.051,0.323l-0.018,0.187
			l0.034,0.169v0.204v0.17l-0.017,0.169l0.051,0.136l-0.034,0.204l0.034,0.204l-0.034,0.136l-0.034,0.204l0.034,0.17l-0.017,0.119
			l0.033,0.187l-0.051,0.221l0.068,0.306l0.034,0.119l0.407,0.017l0.152-0.034l0.153-0.017h0.306l0.204,0.017l0.136,0.017
			l0.17-0.034l0.187,0.017l0.085-0.017l0.221,0.017l0.17,0.017l0.289-0.017l0.221,0.068l0.102,0.068l0.289,0.255l0.118,0.119
			l0.052,0.102l0.169,0.102l0.222,0.271l0.084,0.102l0.018,0.339l-0.034,0.221v0.153l-0.034,0.187l0.068,0.136l-0.051,0.221
			l0.017,0.136v0.187v0.187l-0.051,0.17l0.067,0.17l-0.067,0.187l0.051,0.17l-0.017,0.119l0.033,0.221l-0.017,0.187l-0.051,0.17
			l0.017,0.119l0.034,0.169l-0.017,0.221l0.033,0.187l-0.017,0.153l-0.017,0.153l-0.018,0.34v0.119l-0.288,0.255l-0.119,0.085
			l-0.068,0.136l-0.102,0.085l-0.17,0.119l-0.034,0.119l-0.306,0.187l-0.288,0.051l-0.119,0.034l-0.187-0.034l-0.188,0.034h-0.136
			l-0.187-0.034l-0.136,0.017l-0.188,0.017l-0.221-0.017h-0.118l-0.188,0.017l-0.203-0.034h-0.136l-0.188-0.017l-0.152,0.034
			l-0.17-0.034l-0.119,0.017h-0.221l-0.356-0.017l-0.187-0.221l-0.153-0.136l-0.119-0.119l-0.152-0.119l-0.119-0.119l-0.187-0.221
			l-0.119-0.119l-0.051-0.323l0.017-0.204v-0.204l0.034-0.119l-0.017-0.17l-0.018-0.204v-0.187l0.034-0.187l-0.051-0.119
			l0.034-0.204l-0.018-0.374l0.085-0.085l0.408,0.034l0.102-0.034l0.204-0.017l0.152,0.017l0.238-0.017h0.118l0.153,0.051
			l0.356,0.051l0.051,0.323v0.204l0.051,0.153l-0.051,0.169l0.051,0.221v0.374l0.357,0.068l0.203-0.034h0.085l0.221,0.017
			l0.119-0.051l0.221,0.017l0.153,0.034h0.118l0.357-0.068l0.017-0.34l0.051-0.204v-0.153l-0.034-0.17l0.018-0.153l-0.034-0.221
			l0.068-0.136l-0.018-0.17l0.018-0.204V28.58l-0.068-0.17l0.068-0.187l-0.052-0.17l0.034-0.356l-0.085-0.119l-0.373-0.017
			l-0.153,0.017l-0.187-0.034l-0.204,0.051h-0.271l-0.187-0.017l-0.204,0.017l-0.119-0.017l-0.17-0.017l-0.221,0.051l-0.373-0.017
			l-0.119-0.068l-0.188-0.051l-0.203-0.306l-0.119-0.119l-0.187-0.068l-0.085-0.119l-0.306-0.289l-0.068-0.153l-0.017-0.374
			l0.017-0.153l0.034-0.221v-0.17l-0.051-0.17l0.051-0.136v-0.187l-0.051-0.119l0.017-0.221l0.018-0.119l-0.034-0.204l0.051-0.153
			l-0.034-0.34l0.051-0.204l-0.033-0.136v-0.187l0.033-0.153l-0.051-0.153l0.034-0.204v-0.169v-0.204l0.017-0.17l-0.067-0.119
			l0.051-0.204l0.034-0.34l0.051-0.17l0.271-0.289l0.119-0.119l0.136-0.136l0.221-0.221l0.17-0.119l0.136-0.034l0.119-0.068
			l0.391-0.017l0.136,0.034l0.17,0.017h0.17l0.17-0.017l0.221,0.034l0.136-0.034l0.152,0.034l0.238-0.034l0.152,0.034l0.188-0.017
			h0.136l0.152-0.017l0.204-0.017l0.204,0.017l0.152,0.017l0.306-0.017l0.119,0.051l0.237,0.255l0.153,0.085l0.085,0.153
			l0.102,0.119l0.17,0.085l0.188,0.221l0.084,0.136l-0.051,0.323l0.018,0.187l0.017,0.102l0.034,0.17l-0.018,0.221l-0.033,0.119
			l0.051,0.204l-0.018,0.119l-0.017,0.204l0.017,0.153v0.17l-0.017,0.17l-0.017,0.323l-0.119,0.102l-0.306,0.017l-0.17,0.017
			l-0.136-0.034l-0.204,0.034h-0.306l-0.152-0.051h-0.391L152.615,24.046z M149.337,23.706l-0.033,0.102h0.067l-0.034-0.051V23.706z
			 M149.456,23.265l-0.017-0.017l0.017,0.102l0.034-0.034L149.456,23.265z M149.609,22.67h-0.018l-0.033,0.119l0.102-0.017
			L149.609,22.67z M149.609,24.623l-0.051-0.017l0.017-0.034L149.609,24.623z M149.745,29.939l-0.119-0.017l-0.051,0.085l0.17-0.034
			V29.939z M149.626,21.838l0.068,0.034v-0.034l-0.018-0.017L149.626,21.838z M149.643,22.127l0.017-0.119l-0.017,0.034V22.127z
			 M149.727,30.822l-0.017-0.068l0.017-0.017l-0.033,0.068L149.727,30.822z M149.727,24.318l-0.017-0.017l0.017,0.068V24.318z
			 M149.779,31.298l-0.052-0.051l0.052,0.068l0.033-0.051L149.779,31.298z M149.846,24.997l-0.034,0.034l-0.067,0.119l0.102-0.017
			V24.997z M149.762,21.482l0.034,0.034v-0.051h-0.017L149.762,21.482z M149.779,23.774h0.067l-0.051,0.017L149.779,23.774z
			 M149.846,23.672v0.034l0.034-0.068L149.846,23.672z M149.915,21.77h-0.051v0.068h0.051V21.77z M150.067,21.532l0.051-0.051
			h-0.017l-0.152-0.034L150.067,21.532z M149.982,31.417h-0.033l0.017-0.034l0.051,0.034H149.982z M150,26.118l0.034,0.017
			l-0.052-0.017l0.034-0.034L150,26.118z M150,31.179l0.017,0.017l0.034-0.034L150,31.179z M150.085,30.856h-0.068l0.034,0.017
			L150.085,30.856z M150.067,25.455l0.018,0.068l0.051,0.034l-0.018-0.085L150.067,25.455z M150.152,30.483l-0.017,0.068
			l0.067,0.017L150.152,30.483z M150.152,26.271l0.051,0.017l-0.017,0.034l0.034-0.017L150.152,26.271z M150.288,30.992
			l-0.085-0.017l0.034,0.102l0.051,0.085V30.992z M150.271,30.584l-0.017,0.034h0.102L150.271,30.584z M150.407,26.05v0.051
			l0.051-0.017L150.407,26.05z M150.594,31.196h-0.051l-0.017,0.051h0.067V31.196z M150.56,31.722l0.017,0.051l0.034-0.017
			l0.017-0.034H150.56z M150.713,31.485h-0.085H150.713z M150.747,26.746l0.085-0.034v-0.068l-0.102,0.051L150.747,26.746z
			 M150.798,31.077l0.034-0.017l0.034-0.017L150.798,31.077z M151.137,26.508l-0.068-0.034L151.137,26.508z M151.205,21.227
			l-0.033-0.017l0.033,0.051V21.227z M151.63,31.671h-0.051l-0.034,0.034L151.63,31.671z M151.562,21.515l0.017-0.051l0.017-0.017
			L151.562,21.515z M151.68,21.142l0.018,0.068l-0.051,0.017l0.067,0.034L151.68,21.142z M151.834,20.955l-0.085,0.017v0.051
			l0.068,0.017L151.834,20.955z M151.885,21.838l0.017,0.068v-0.068H151.885z M151.953,31.62h0.033h-0.017V31.57L151.953,31.62z
			 M152.038,21.142v0.085l0.033-0.051l-0.067-0.068L152.038,21.142z M152.123,26.526h-0.052l0.018,0.034h0.017L152.123,26.526z
			 M152.123,26.967l-0.018-0.034L152.123,26.967z M152.224,21.329l-0.051,0.119l0.118-0.085l-0.017-0.085L152.224,21.329z
			 M152.428,26.814l0.136-0.068l0.051-0.119l-0.119,0.051L152.428,26.814z M152.445,31.637v-0.051l0.085,0.017l-0.034-0.051
			L152.445,31.637z M152.564,31.383l0.067-0.017l0.034-0.034v-0.034L152.564,31.383z M152.682,31.671l-0.051-0.017L152.682,31.671z
			 M152.666,27.307l0.068-0.017l-0.018-0.034L152.666,27.307z M152.955,21.821l-0.018-0.136l-0.085,0.068l-0.017,0.102
			L152.955,21.821z M152.937,30.771l-0.067,0.034l0.051-0.034H152.937z M152.955,31.23h0.033l-0.051-0.119l-0.051,0.034
			L152.955,31.23z M153.107,31.467l-0.119,0.051l0.068-0.017l0.017,0.051L153.107,31.467z M153.091,26.644l0.051-0.051h0.051
			l-0.085-0.034L153.091,26.644z M153.158,22.042h0.034l0.018-0.017L153.158,22.042z M153.21,30.075l0.118,0.017l0.018-0.051h-0.119
			l-0.068,0.017L153.21,30.075z M153.226,22.212l0.017,0.068l0.068,0.017l-0.051-0.051L153.226,22.212z M153.277,30.415
			l-0.017-0.017h-0.034L153.277,30.415z M153.277,31.06l-0.017,0.017v0.085l0.017-0.068V31.06z M153.277,27.273l0.068,0.034
			l0.017-0.068l-0.067,0.017L153.277,27.273z M153.311,28.512l-0.017,0.119h0.084l-0.033-0.102L153.311,28.512z M153.379,28.801
			l0.034,0.119l0.068,0.017v-0.153L153.379,28.801z M153.396,22.789l0.034-0.051l0.051-0.034l-0.068,0.051L153.396,22.789z
			 M153.549,27.68v-0.034l0.034,0.017l-0.034,0.034V27.68z M153.634,27.884l-0.033-0.051l-0.052,0.017L153.634,27.884z
			 M153.583,29.464l-0.034,0.102h0.068l-0.051-0.085l0.051-0.068l-0.034,0.034l-0.034-0.017L153.583,29.464z M153.566,30.584
			l0.102-0.051H153.6l-0.052,0.051H153.566z M153.583,27.425l0.051,0.034l0.068-0.051l-0.051,0.017H153.583z M153.6,28.139
			l0.033-0.017l-0.051-0.051v0.034L153.6,28.139z M153.634,30.992L153.6,31.06l0.051-0.051L153.634,30.992z M153.617,29.701
			l0.085,0.051h-0.051L153.617,29.701z M153.736,28.954l-0.034-0.017L153.736,28.954z M153.906,27.901l-0.018-0.034L153.906,27.901z
			"/>
	</g>
	<g>
		<path class="st0" d="M51.334,14.509c0.859,1.323,1.567,2.747,2.123,4.246h102.916v15.099H53.423
			c-0.565,1.5-1.279,2.925-2.146,4.247H160.62V14.509H51.334z"/>
		<path class="st0" d="M12.919,33.855H4.246V18.756h8.638c0.557-1.5,1.264-2.924,2.123-4.246H0v23.592h15.065
			C14.198,36.78,13.484,35.354,12.919,33.855z"/>
	</g>
	<path class="st0" d="M33.171,9.293c-9.355,0-16.966,7.611-16.966,16.965s7.611,16.965,16.966,16.965
		c9.355,0,16.966-7.611,16.966-16.965S42.526,9.293,33.171,9.293z M35.799,39.455V26.848h5.182v-5.126h-5.182v-5.126H30.45v5.126
		h-5.461v5.126h5.461V39.44c-6.127-1.263-10.752-6.686-10.752-13.182c0-7.429,6.044-13.472,13.473-13.472
		s13.473,6.044,13.473,13.472C46.644,32.786,41.972,38.228,35.799,39.455z"/>
	<path class="st0" d="M33.171,6.109c0.691,0,1.374,0.035,2.048,0.104L33.016,0l-1.921,6.216C31.778,6.146,32.47,6.109,33.171,6.109z
		"/>
	<path class="st0" d="M59.476,26.46l-6.258-2.219c0.066,0.664,0.102,1.336,0.102,2.017c0,0.723-0.042,1.437-0.117,2.14L59.476,26.46
		z"/>
	<path class="st0" d="M13.021,26.258c0-0.681,0.036-1.353,0.102-2.017L6.866,26.46l6.273,1.939
		C13.064,27.695,13.021,26.981,13.021,26.258z"/>
	<path class="st0" d="M33.171,46.407c-0.712,0-1.414-0.04-2.107-0.112l1.952,6.315l2.238-6.311
		C34.569,46.37,33.874,46.407,33.171,46.407z"/>
</g>
</svg>