<!-- Generator: Adobe Illustrator 21.0.0, SVG Export Plug-In  -->
<svg version="1.1"
	 xmlns="http://www.w3.org/2000/svg" xmlns:xlink="http://www.w3.org/1999/xlink" xmlns:a="http://ns.adobe.com/AdobeSVGViewerExtensions/3.0/"
	 x="0px" y="0px" width="155.333px" height="57.435px" viewBox="0 0 155.333 57.435"
	 style="overflow:scroll;enable-background:new 0 0 155.333 57.435;" xml:space="preserve">
<style type="text/css">
	.st0{fill:#3D2515;}
	.st1{fill:#704528;}
	.st2{fill:#FFCE00;}
	.st3{opacity:0.2;fill:#FFFFFF;}
	.st4{fill:#A5A5A5;}
	.st5{fill:#256625;}
</style>
<defs>
</defs>
<polygon class="st0" points="18.458,57.435 77.922,57.435 65.265,35.946 60.491,40.72 57.623,34.151 55.713,35.226 47.354,23.644 
	41.504,34.51 36.847,31.286 30.279,40.54 27.175,38.092 "/>
<polygon class="st1" points="0,57.435 41.5,57.435 32.667,42.438 29.335,45.77 27.333,41.185 26,41.935 20.167,33.852 
	16.083,41.435 12.833,39.185 8.25,45.644 6.083,43.935 "/>
<polygon class="st0" points="70.625,57.435 130.089,57.435 117.432,35.946 112.657,40.72 109.79,34.151 107.879,35.226 
	99.521,23.644 93.67,34.51 89.013,31.286 82.446,40.54 79.341,38.092 "/>
<polygon class="st1" points="52.167,57.435 93.667,57.435 84.833,42.438 81.501,45.77 79.5,41.185 78.167,41.935 72.333,33.852 
	68.25,41.435 65,39.185 60.417,45.644 58.25,43.935 "/>
<polygon class="st1" points="113.833,57.435 155.333,57.435 146.5,42.438 143.168,45.77 141.167,41.185 139.833,41.935 134,33.852 
	129.917,41.435 126.666,39.185 122.083,45.644 119.916,43.935 "/>
<g>
	<g>
		<circle class="st2" cx="14.341" cy="10.645" r="9.5"/>
		<path class="st3" d="M11.549,1.562c0,0-2.292,4.291-1.708,9.499s4.5,9.083,4.5,9.083s-7.701,0.807-9.339-7.764
			C3.341,3.686,11.549,1.562,11.549,1.562z"/>
	</g>
</g>
<g>
	<ellipse transform="matrix(0.9818 -0.1899 0.1899 0.9818 0.692 26.4519)" class="st4" cx="138.362" cy="9.615" rx="9.5" ry="9.5"/>
	<path class="st5" d="M98.277,26.554"/>
	<path class="st3" d="M142.828,18.002c0,0,1.435-4.648-0.127-9.651c-1.562-5.003-6.143-8.063-6.143-8.063s7.408-2.254,10.643,5.849
		C150.483,14.358,142.828,18.002,142.828,18.002z"/>
	<polygon class="st2" points="83.571,13.823 84.086,15.409 85.753,15.409 84.404,16.389 84.919,17.974 83.571,16.994 82.222,17.974 
		82.737,16.389 81.388,15.409 83.055,15.409 	"/>
	<polygon class="st2" points="77.087,0.913 77.602,2.499 79.269,2.499 77.92,3.479 78.435,5.064 77.087,4.084 75.738,5.064 
		76.253,3.479 74.904,2.499 76.571,2.499 	"/>
	<polygon class="st2" points="98.277,6.926 98.793,8.511 100.46,8.511 99.111,9.491 99.626,11.077 98.277,10.097 96.929,11.077 
		97.444,9.491 96.095,8.511 97.762,8.511 	"/>
	<polygon class="st2" points="115.732,15.899 116.248,17.484 117.915,17.484 116.566,18.464 117.081,20.05 115.732,19.07 
		114.384,20.05 114.899,18.464 113.55,17.484 115.217,17.484 	"/>
	<polygon class="st2" points="118.804,1.948 119.319,3.534 120.986,3.534 119.638,4.514 120.153,6.099 118.804,5.119 117.455,6.099 
		117.971,4.514 116.622,3.534 118.289,3.534 	"/>
</g>
</svg>