<!-- Generator: Adobe Illustrator 21.0.0, SVG Export Plug-In  -->
<svg version="1.1"
	 xmlns="http://www.w3.org/2000/svg" xmlns:xlink="http://www.w3.org/1999/xlink" xmlns:a="http://ns.adobe.com/AdobeSVGViewerExtensions/3.0/"
	 x="0px" y="0px" width="33.241px" height="37.023px" viewBox="0 0 33.241 37.023"
	 style="overflow:scroll;enable-background:new 0 0 33.241 37.023;" xml:space="preserve">
<style type="text/css">
	.st0{fill:#F0572A;}
	.st1{fill:#FFCE00;}
</style>
<defs>
</defs>
<polygon class="st0" points="0,0 33.241,0 33.241,27.352 16.441,37.023 0,27.113 "/>
<g>
	<polygon class="st1" points="8.649,4.745 9.865,8.485 13.798,8.485 10.616,10.797 11.831,14.538 8.649,12.226 5.467,14.538 
		6.683,10.797 3.501,8.485 7.434,8.485 	"/>
	<polygon class="st1" points="24.592,4.745 25.807,8.485 29.74,8.485 26.559,10.797 27.774,14.538 24.592,12.226 21.41,14.538 
		22.625,10.797 19.443,8.485 23.377,8.485 	"/>
</g>
<polygon class="st1" points="16.621,14.538 17.836,18.278 21.769,18.278 18.587,20.59 19.803,24.331 16.621,22.019 13.439,24.331 
	14.654,20.59 11.472,18.278 15.405,18.278 "/>
</svg>