<!-- Generator: Adobe Illustrator 21.0.0, SVG Export Plug-In  -->
<svg version="1.1"
	 xmlns="http://www.w3.org/2000/svg" xmlns:xlink="http://www.w3.org/1999/xlink" xmlns:a="http://ns.adobe.com/AdobeSVGViewerExtensions/3.0/"
	 x="0px" y="0px" width="52.61px" height="52.61px" viewBox="0 0 52.61 52.61"
	 style="overflow:scroll;enable-background:new 0 0 52.61 52.61;" xml:space="preserve">
<style type="text/css">
	.st0{fill:#FFFFFF;}
</style>
<defs>
</defs>
<g>
	<path class="st0" d="M26.305,9.293c-9.355,0-16.966,7.611-16.966,16.965s7.611,16.965,16.966,16.965
		c9.355,0,16.966-7.611,16.966-16.965S35.66,9.293,26.305,9.293z M28.934,39.455V26.848h5.182v-5.126h-5.182v-5.126h-5.349v5.126
		h-5.461v5.126h5.461V39.44c-6.127-1.263-10.752-6.686-10.752-13.182c0-7.429,6.044-13.472,13.473-13.472
		s13.473,6.044,13.473,13.472C39.778,32.786,35.106,38.228,28.934,39.455z"/>
	<path class="st0" d="M26.305,6.109c0.691,0,1.374,0.035,2.048,0.104L26.15,0l-1.921,6.216C24.912,6.146,25.604,6.109,26.305,6.109z
		"/>
	<path class="st0" d="M52.61,26.46l-6.258-2.219c0.066,0.664,0.102,1.336,0.102,2.017c0,0.723-0.042,1.437-0.117,2.14L52.61,26.46z"
		/>
	<path class="st0" d="M6.156,26.258c0-0.681,0.036-1.353,0.102-2.017L0,26.46l6.273,1.939C6.198,27.695,6.156,26.981,6.156,26.258z"
		/>
	<path class="st0" d="M26.305,46.407c-0.712,0-1.414-0.04-2.107-0.112l1.952,6.315l2.238-6.311
		C27.703,46.37,27.009,46.407,26.305,46.407z"/>
</g>
</svg>