<!-- Generator: Adobe Illustrator 21.0.0, SVG Export Plug-In  -->
<svg version="1.1"
	 xmlns="http://www.w3.org/2000/svg" xmlns:xlink="http://www.w3.org/1999/xlink" xmlns:a="http://ns.adobe.com/AdobeSVGViewerExtensions/3.0/"
	 x="0px" y="0px" width="12.042px" height="40.542px" viewBox="0 0 12.042 40.542"
	 style="overflow:scroll;enable-background:new 0 0 12.042 40.542;" xml:space="preserve">
<style type="text/css">
	.st0{fill:#F0572A;}
	.st1{fill:#C12805;}
	.st2{fill:#F97658;}
	.st3{fill:#FFCE00;}
	.st4{fill:#C6A518;}
</style>
<defs>
</defs>
<g>
	<polygon class="st0" points="0.177,0 11.761,0 11.761,24.917 5.969,28.5 0.443,24.789 	"/>
	<path class="st1" d="M7.511,3.833H6.469v-0.75c0-0.276-0.224-0.5-0.5-0.5s-0.5,0.224-0.5,0.5v0.75H4.427
		c-0.276,0-0.5,0.224-0.5,0.5s0.224,0.5,0.5,0.5h1.042v3.083c0,0.276,0.224,0.5,0.5,0.5s0.5-0.224,0.5-0.5V4.833h1.042
		c0.276,0,0.5-0.224,0.5-0.5S7.787,3.833,7.511,3.833z"/>
	<rect x="0.281" y="10.668" class="st2" width="11.48" height="3.165"/>
	<circle class="st3" cx="6.021" cy="34.521" r="6.021"/>
	<polygon class="st4" points="6.021,30.713 6.876,33.344 9.643,33.344 7.404,34.97 8.259,37.602 6.021,35.975 3.782,37.602 
		4.637,34.97 2.399,33.344 5.166,33.344 	"/>
</g>
</svg>